<svg width="100" height="100" viewBox="0 0 100 100" fill="none" xmlns="http://www.w3.org/2000/svg">
<path d="M80.1427 54.5994L80.1284 62.7892C80.1284 59.1607 77.7475 55.5176 72.9569 52.7638C70.5903 51.3869 67.8364 50.3687 64.9104 49.6802C56.1325 47.6289 45.6909 48.6472 38.6054 52.7638C33.9296 55.4888 31.5773 59.0606 31.563 62.6463L31.5917 54.4565C31.6061 50.8848 33.944 47.3138 38.6341 44.5887C45.7195 40.4721 56.1613 39.4391 64.9392 41.4904C67.8651 42.1788 70.6047 43.2111 72.9856 44.574C77.7618 47.3425 80.1571 50.971 80.1427 54.5994Z" fill="#F2BC36"/>
<path d="M80.1446 54.5984L80.1214 62.7827C80.1113 66.3626 77.7628 69.9371 73.0713 72.6635L73.0945 64.4792C77.786 61.7527 80.1345 58.1783 80.1446 54.5984Z" fill="#F9C73A"/>
<path d="M31.5684 62.6435L31.5916 54.4592C31.5813 58.0843 33.9681 61.7149 38.7469 64.4739C48.2524 69.962 63.6598 69.9621 73.0944 64.4793L73.0712 72.6636C63.6366 78.1464 48.2292 78.1463 38.7237 72.6583C33.9449 69.8992 31.5581 66.2686 31.5684 62.6435Z" fill="#F9C73A"/>
<path d="M72.9821 46.7558C82.4876 52.2438 82.5382 61.1683 73.0942 66.6566C63.6595 72.1394 48.2522 72.1393 38.7466 66.6512C29.2503 61.1686 29.1998 52.244 38.6344 46.7612C48.0784 41.273 63.4858 41.2731 72.9821 46.7558Z" fill="#F9C73A"/>
<path d="M87.3282 54.6184L87.305 62.8028C87.2918 67.4387 84.2464 72.0676 78.1627 75.6031C65.917 82.7195 45.9912 82.7142 33.6652 75.5978C27.4625 72.0167 24.3647 67.3163 24.378 62.6231L24.4012 54.4388C24.3879 59.132 27.4857 63.8324 33.6884 67.4135C46.0144 74.5299 65.9402 74.5352 78.1859 67.4188C84.2696 63.8833 87.315 59.2544 87.3282 54.6184Z" fill="#F2BC36"/>
<path d="M78.0413 41.6385C90.3673 48.7549 90.4322 60.3021 78.1861 67.4188C65.9404 74.5352 46.0146 74.5299 33.6886 67.4135C21.3627 60.2971 21.2975 48.7606 33.5432 41.6442C45.7893 34.5275 65.7154 34.5221 78.0413 41.6385ZM38.747 64.4739C48.2526 69.9619 63.6599 69.962 73.0945 64.4792C82.5385 58.9909 82.488 50.0664 72.9825 44.5784C63.4862 39.0957 48.0788 39.0956 38.6348 44.5839C29.2002 50.0667 29.2507 58.9912 38.747 64.4739Z" fill="#FED44C"/>
<path d="M67.7049 48.8839L67.7001 50.5708L66.374 51.3414L66.3788 49.6545L67.7049 48.8839Z" fill="#F2BC36"/>
<path d="M56.4268 52.8542L56.4315 51.1673C56.4326 50.7749 56.7205 50.4153 57.2882 50.0854C57.8722 49.746 58.5825 49.5935 59.4122 49.6241C60.2487 49.6508 61.0927 49.872 61.9448 50.2876L61.94 51.9745C61.088 51.5589 60.2439 51.3377 59.4075 51.311C58.5778 51.2804 57.8675 51.433 57.2835 51.7723C56.7158 52.1022 56.4279 52.4618 56.4268 52.8542Z" fill="#F2BC36"/>
<path d="M63.5439 51.3021L63.5391 52.989L58.6558 55.827L58.6605 54.14L63.5439 51.3021Z" fill="#F2BC36"/>
<path d="M65.78 54.3344L65.7752 56.0214C65.4393 54.8848 64.6896 53.874 63.5391 52.9891L63.5438 51.3021C64.6944 52.1871 65.4441 53.1979 65.78 54.3344Z" fill="#F2BC36"/>
<path d="M69.8735 53.9301L69.8687 55.617L65.7754 56.0212L65.7802 54.3343L69.8735 53.9301Z" fill="#F2BC36"/>
<path d="M51.7422 52.5955L51.747 50.9086C51.7467 51.0011 51.7541 51.0942 51.7692 51.1878C51.9196 52.1566 52.7493 53.3505 54.2518 54.758L54.247 56.4449C52.7445 55.0374 51.9148 53.8435 51.7644 52.8747C51.7494 52.7811 51.7419 52.6881 51.7422 52.5955Z" fill="#F2BC36"/>
<path d="M56.635 57.8649L56.6302 59.5519C56.6303 59.5321 56.6296 59.5123 56.6283 59.4924C56.5998 59.0651 56.2144 58.4549 55.479 57.673L55.4838 55.9861C56.2192 56.7679 56.6046 57.3782 56.6331 57.8055C56.6344 57.8254 56.6351 57.8452 56.635 57.8649Z" fill="#F2BC36"/>
<path d="M55.4837 55.9861L55.479 57.673L50.7993 60.3925L50.8041 58.7056L55.4837 55.9861Z" fill="#F2BC36"/>
<path d="M46.3698 59.3386L46.365 61.0256C44.2164 59.5037 43.021 57.7187 42.7656 55.663L42.7704 53.9761C43.0258 56.0318 44.2212 57.8168 46.3698 59.3386Z" fill="#F2BC36"/>
<path d="M46.1511 61.4098L46.1463 63.0968L44.4683 62.128L44.473 60.441L46.1511 61.4098Z" fill="#F2BC36"/>
<path d="M48.0213 60.3228L48.0165 62.0097L46.146 63.0967L46.1508 61.4098L48.0213 60.3228Z" fill="#F2BC36"/>
<path d="M61.2764 58.119L61.2716 59.806C61.2691 60.7097 60.5768 61.5603 59.1997 62.3606C57.677 63.2455 55.9011 63.6499 53.8728 63.5812C51.8376 63.5088 49.8855 62.9824 48.0166 62.0098L48.0214 60.3228C49.8903 61.2955 51.8424 61.8218 53.8776 61.8942C55.9059 61.963 57.6818 61.5585 59.2044 60.6737C60.5816 59.8734 61.2738 59.0228 61.2764 58.119Z" fill="#F2BC36"/>
<path d="M61.2562 57.8435C61.4069 58.8504 60.7208 59.7925 59.2046 60.6736C57.682 61.5585 55.906 61.9629 53.8778 61.8942C51.8425 61.8218 49.8905 61.2954 48.0215 60.3228L46.151 61.4098L44.473 60.441L46.3699 59.3387C44.2213 57.8168 43.0259 56.0318 42.7705 53.9761L46.944 53.7624C47.1441 55.3453 47.8954 56.6536 49.205 57.6911L54.2522 54.7579C52.7496 53.3504 51.9199 52.1565 51.7696 51.1877C51.6126 50.2152 52.2856 49.296 53.7886 48.4225C55.2852 47.5528 57.0345 47.1408 59.043 47.1981C61.0582 47.2515 62.9508 47.7436 64.7275 48.6703L66.0272 47.915L67.7052 48.8838L66.3792 49.6545C68.1572 50.8406 69.3241 52.2672 69.8735 53.9301L65.7801 54.3344C65.4443 53.1978 64.6946 52.1871 63.544 51.3021L58.6607 54.14L58.7399 54.1857C60.2691 55.616 61.119 56.8365 61.2562 57.8435ZM53.5214 59.4303C54.4105 59.4799 55.1537 59.3311 55.7641 58.9764C56.368 58.6255 56.6621 58.2326 56.6333 57.8055C56.6048 57.3781 56.2194 56.7679 55.484 55.9861L50.8043 58.7056C51.7288 59.1403 52.6323 59.3806 53.5214 59.4303ZM57.4488 52.9003L61.9447 50.2876C61.0926 49.8719 60.2486 49.6507 59.4121 49.624C58.5825 49.5934 57.8721 49.746 57.2881 50.0854C56.7106 50.421 56.4226 50.7873 56.4316 51.1877C56.4471 51.5844 56.7794 52.1566 57.4488 52.9003Z" fill="#FED44C"/>
<path d="M82.9454 43.1672L82.9311 51.357C82.9311 47.7285 80.5502 44.0853 75.7596 41.3316C73.393 39.9547 70.6391 38.9364 67.7132 38.248C58.9353 36.1967 48.4936 37.215 41.4082 41.3316C36.7323 44.0566 34.3801 47.6283 34.3657 51.2141L34.3944 43.0243C34.4088 39.4525 36.7467 35.8815 41.4368 33.1565C48.5223 29.0399 58.964 28.0068 67.7419 30.0581C70.6678 30.7466 73.4074 31.7789 75.7883 33.1417C80.5645 35.9102 82.9598 39.5387 82.9454 43.1672Z" fill="#F2BC36"/>
<path d="M82.9474 43.1661L82.9241 51.3505C82.914 54.9304 80.5656 58.5048 75.874 61.2313L75.8972 53.047C80.5888 50.3205 82.9372 46.746 82.9474 43.1661Z" fill="#F9C73A"/>
<path d="M34.3711 51.2113L34.3943 43.027C34.384 46.652 36.7708 50.2826 41.5496 53.0417C51.0551 58.5297 66.4625 58.5298 75.8971 53.047L75.8739 61.2313C66.4393 66.7141 51.0319 66.714 41.5264 61.226C36.7476 58.4669 34.3608 54.8363 34.3711 51.2113Z" fill="#F9C73A"/>
<path d="M75.7848 35.3235C85.2903 40.8115 85.3409 49.7361 75.8969 55.2243C66.4623 60.7071 51.0549 60.707 41.5494 55.219C32.0531 49.7363 32.0025 40.8118 41.4372 35.329C50.8812 29.8407 66.2885 29.8408 75.7848 35.3235Z" fill="#F9C73A"/>
<path d="M90.1309 43.1862L90.1077 51.3705C90.0945 56.0064 87.0491 60.6354 80.9654 64.1709C68.7197 71.2873 48.7939 71.282 36.4679 64.1656C30.2653 60.5845 27.1674 55.8841 27.1807 51.1909L27.2039 43.0066C27.1906 47.6998 30.2885 52.4002 36.4911 55.9813C48.8171 63.0977 68.7429 63.103 80.9886 55.9866C87.0723 52.4511 90.1177 47.8221 90.1309 43.1862Z" fill="#F2BC36"/>
<path d="M80.8436 30.2062C93.1696 37.3227 93.2345 48.8699 80.9883 55.9866C68.7427 63.103 48.8169 63.0977 36.4909 55.9812C24.1649 48.8648 24.0998 37.3284 36.3454 30.212C48.5916 23.0953 68.5176 23.0899 80.8436 30.2062ZM41.5493 53.0416C51.0548 58.5297 66.4621 58.5298 75.8968 53.047C85.3408 47.5587 85.2902 38.6342 75.7847 33.1462C66.2884 27.6635 50.8811 27.6634 41.437 33.1516C32.0024 38.6344 32.053 47.5589 41.5493 53.0416Z" fill="#FED44C"/>
<path d="M70.5076 37.4517L70.5028 39.1386L69.1768 39.9092L69.1815 38.2223L70.5076 37.4517Z" fill="#F2BC36"/>
<path d="M59.2295 41.422L59.2343 39.735C59.2354 39.3426 59.5233 38.9831 60.091 38.6532C60.675 38.3138 61.3853 38.1612 62.215 38.1918C63.0514 38.2185 63.8954 38.4397 64.7475 38.8554L64.7427 40.5423C63.8907 40.1267 63.0466 39.9054 62.2102 39.8787C61.3805 39.8481 60.6702 40.0007 60.0862 40.3401C59.5185 40.67 59.2306 41.0295 59.2295 41.422Z" fill="#F2BC36"/>
<path d="M66.3466 39.8699L66.3418 41.5568L61.4585 44.3947L61.4633 42.7078L66.3466 39.8699Z" fill="#F2BC36"/>
<path d="M68.5827 42.9022L68.5779 44.5891C68.242 43.4526 67.4923 42.4418 66.3418 41.5568L66.3466 39.8699C67.4971 40.7549 68.2468 41.7656 68.5827 42.9022Z" fill="#F2BC36"/>
<path d="M72.6763 42.4978L72.6715 44.1847L68.5781 44.589L68.5829 42.9021L72.6763 42.4978Z" fill="#F2BC36"/>
<path d="M54.5449 41.1632L54.5497 39.4763C54.5494 39.5689 54.5569 39.662 54.572 39.7555C54.7223 40.7243 55.552 41.9182 57.0546 43.3257L57.0498 45.0127C55.5472 43.6052 54.7175 42.4112 54.5672 41.4425C54.5521 41.3489 54.5447 41.2558 54.5449 41.1632Z" fill="#F2BC36"/>
<path d="M59.4377 46.4326L59.4329 48.1196C59.433 48.0998 59.4324 48.08 59.431 48.0602C59.4025 47.6328 59.0172 47.0226 58.2817 46.2407L58.2865 44.5538C59.022 45.3357 59.4073 45.9459 59.4358 46.3732C59.4371 46.3931 59.4378 46.4129 59.4377 46.4326Z" fill="#F2BC36"/>
<path d="M58.2865 44.5538L58.2817 46.2408L53.6021 48.9603L53.6068 47.2734L58.2865 44.5538Z" fill="#F2BC36"/>
<path d="M49.1725 47.9064L49.1677 49.5933C47.0191 48.0715 45.8237 46.2865 45.5684 44.2307L45.5731 42.5438C45.8285 44.5995 47.0239 46.3845 49.1725 47.9064Z" fill="#F2BC36"/>
<path d="M48.9538 49.9776L48.949 51.6645L47.271 50.6957L47.2758 49.0088L48.9538 49.9776Z" fill="#F2BC36"/>
<path d="M50.824 48.8905L50.8193 50.5774L48.9487 51.6644L48.9535 49.9775L50.824 48.8905Z" fill="#F2BC36"/>
<path d="M64.0791 46.6868L64.0744 48.3737C64.0718 49.2774 63.3795 50.128 62.0024 50.9283C60.4797 51.8132 58.7038 52.2176 56.6756 52.1489C54.6403 52.0765 52.6883 51.5501 50.8193 50.5775L50.8241 48.8906C52.6931 49.8632 54.6451 50.3896 56.6803 50.4619C58.7086 50.5307 60.4845 50.1263 62.0072 49.2414C63.3843 48.4411 64.0766 47.5905 64.0791 46.6868Z" fill="#F2BC36"/>
<path d="M64.059 46.4113C64.2096 47.4181 63.5236 48.3603 62.0073 49.2414C60.4847 50.1262 58.7088 50.5307 56.6805 50.4619C54.6453 50.3895 52.6932 49.8632 50.8243 48.8905L48.9538 49.9776L47.2758 49.0088L49.1726 47.9064C47.024 46.3845 45.8286 44.5995 45.5732 42.5438L49.7468 42.3302C49.9468 43.913 50.6982 45.2213 52.0078 46.2588L57.0549 43.3257C55.5524 41.9182 54.7227 40.7243 54.5723 39.7555C54.4154 38.7829 55.0883 37.8637 56.5913 36.9903C58.088 36.1205 59.8373 35.7085 61.8458 35.7659C63.861 35.8193 65.7536 36.3113 67.5303 37.2381L68.83 36.4828L70.508 37.4516L69.1819 38.2222C70.9599 39.4084 72.1268 40.8349 72.6763 42.4978L68.5829 42.9021C68.247 41.7656 67.4973 40.7548 66.3468 39.8698L61.4634 42.7077L61.5427 42.7535C63.0718 44.1838 63.9217 45.4042 64.059 46.4113ZM56.3241 47.998C57.2132 48.0477 57.9565 47.8989 58.5668 47.5442C59.1708 47.1932 59.4649 46.8004 59.4361 46.3733C59.4075 45.9459 59.0222 45.3357 58.2868 44.5538L53.6071 47.2734C54.5315 47.7081 55.435 47.9484 56.3241 47.998ZM60.2515 41.4681L64.7474 38.8553C63.8954 38.4397 63.0513 38.2185 62.2149 38.1918C61.3852 38.1612 60.6749 38.3138 60.0909 38.6531C59.5133 38.9888 59.2254 39.3551 59.2344 39.7555C59.2498 40.1522 59.5821 40.7244 60.2515 41.4681Z" fill="#FED44C"/>
<path d="M90.8146 29.4164L90.8002 37.6062C90.8002 33.9777 88.4193 30.3346 83.6287 27.5808C81.2622 26.2039 78.5082 25.1857 75.5823 24.4972C66.8044 22.4459 56.3628 23.4642 49.2773 27.5808C44.6015 30.3058 42.2492 33.8776 42.2349 37.4633L42.2636 29.2735C42.2779 25.7018 44.6159 22.1308 49.306 19.4057C56.3914 15.2891 66.8331 14.2561 75.611 16.3074C78.537 16.9958 81.2765 18.0281 83.6574 19.391C88.4337 22.1595 90.8289 25.7879 90.8146 29.4164Z" fill="#F2BC36"/>
<path d="M90.8165 29.4154L90.7933 37.5997C90.7831 41.1796 88.4347 44.7541 83.7432 47.4805L83.7664 39.2962C88.4579 36.5698 90.8064 32.9953 90.8165 29.4154Z" fill="#F9C73A"/>
<path d="M42.2403 37.4604L42.2634 29.2761C42.2532 32.9011 44.64 36.5318 49.4187 39.2908C58.9243 44.7788 74.3316 44.779 83.7663 39.2961L83.7431 47.4804C74.3084 52.9632 58.9011 52.9631 49.3955 47.4751C44.6168 44.7161 42.23 41.0854 42.2403 37.4604Z" fill="#F9C73A"/>
<path d="M83.6539 21.5727C93.1595 27.0607 93.21 35.9853 83.766 41.4735C74.3314 46.9563 58.924 46.9562 49.4185 41.4682C39.9222 35.9855 39.8717 27.061 49.3063 21.5782C58.7503 16.0899 74.1576 16.09 83.6539 21.5727Z" fill="#F9C73A"/>
<path d="M98 29.4355L97.9768 37.6198C97.9636 42.2557 94.9182 46.8847 88.8345 50.4202C76.5888 57.5366 56.6631 57.5313 44.337 50.4148C38.1344 46.8337 35.0365 42.1333 35.0498 37.4402L35.073 29.2559C35.0597 33.949 38.1576 38.6494 44.3602 42.2305C56.6862 49.3469 76.612 49.3522 88.8577 42.2358C94.9415 38.7004 97.9868 34.0714 98 29.4355Z" fill="#F2BC36"/>
<path d="M88.7132 16.4555C101.039 23.5719 101.104 35.1191 88.8579 42.2358C76.6123 49.3522 56.6865 49.3469 44.3605 42.2305C32.0345 35.1141 31.9694 23.5776 44.2151 16.4612C56.4612 9.34455 76.3872 9.33913 88.7132 16.4555ZM49.4189 39.2909C58.9244 44.7789 74.3317 44.779 83.7664 39.2962C93.2104 33.8079 93.1599 24.8834 83.6543 19.3954C74.158 13.9127 58.7507 13.9126 49.3067 19.4009C39.872 24.8837 39.9226 33.8082 49.4189 39.2909Z" fill="#FED44C"/>
<path d="M78.3767 23.7009L78.372 25.3879L77.0459 26.1585L77.0507 24.4715L78.3767 23.7009Z" fill="#F2BC36"/>
<path d="M67.0986 27.6712L67.1034 25.9843C67.1045 25.5919 67.3924 25.2323 67.9601 24.9024C68.5441 24.563 69.2544 24.4105 70.0841 24.4411C70.9206 24.4678 71.7646 24.689 72.6167 25.1046L72.6119 26.7915C71.7598 26.3759 70.9158 26.1547 70.0793 26.128C69.2497 26.0974 68.5393 26.25 67.9553 26.5893C67.3877 26.9192 67.0998 27.2788 67.0986 27.6712Z" fill="#F2BC36"/>
<path d="M74.2158 26.1191L74.211 27.8061L69.3276 30.644L69.3324 28.957L74.2158 26.1191Z" fill="#F2BC36"/>
<path d="M76.4518 29.1514L76.447 30.8384C76.1111 29.7018 75.3615 28.691 74.2109 27.8061L74.2157 26.1191C75.3663 27.0041 76.1159 28.0149 76.4518 29.1514Z" fill="#F2BC36"/>
<path d="M80.5454 28.7472L80.5406 30.4341L76.4473 30.8384L76.452 29.1515L80.5454 28.7472Z" fill="#F2BC36"/>
<path d="M62.4141 27.4125L62.4188 25.7256C62.4186 25.8181 62.426 25.9112 62.4411 26.0048C62.5915 26.9736 63.4212 28.1675 64.9237 29.575L64.9189 31.2619C63.4164 29.8544 62.5867 28.6605 62.4363 27.6917C62.4212 27.5981 62.4138 27.5051 62.4141 27.4125Z" fill="#F2BC36"/>
<path d="M67.3069 32.6819L67.3021 34.3689C67.3022 34.3491 67.3015 34.3293 67.3002 34.3094C67.2716 33.8821 66.8863 33.2719 66.1509 32.49L66.1557 30.8031C66.8911 31.5849 67.2764 32.1952 67.305 32.6225C67.3063 32.6424 67.307 32.6622 67.3069 32.6819Z" fill="#F2BC36"/>
<path d="M66.1556 30.8031L66.1509 32.49L61.4712 35.2095L61.476 33.5226L66.1556 30.8031Z" fill="#F2BC36"/>
<path d="M57.0417 34.1557L57.0369 35.8426C54.8883 34.3207 53.6928 32.5357 53.4375 30.48L53.4423 28.7931C53.6976 30.8488 54.893 32.6338 57.0417 34.1557Z" fill="#F2BC36"/>
<path d="M56.8229 36.2269L56.8181 37.9138L55.1401 36.945L55.1449 35.2581L56.8229 36.2269Z" fill="#F2BC36"/>
<path d="M58.6931 35.1398L58.6883 36.8267L56.8179 37.9137L56.8227 36.2268L58.6931 35.1398Z" fill="#F2BC36"/>
<path d="M71.9483 32.936L71.9435 34.623C71.941 35.5267 71.2487 36.3773 69.8716 37.1776C68.3489 38.0625 66.573 38.4669 64.5447 38.3981C62.5095 38.3257 60.5574 37.7994 58.6885 36.8268L58.6932 35.1399C60.5622 36.1125 62.5142 36.6389 64.5495 36.7112C66.5778 36.78 68.3537 36.3756 69.8763 35.4907C71.2535 34.6904 71.9458 33.8398 71.9483 32.936Z" fill="#F2BC36"/>
<path d="M71.9281 32.6605C72.0788 33.6674 71.3927 34.6095 69.8765 35.4906C68.3539 36.3755 66.5779 36.7799 64.5496 36.7112C62.5144 36.6388 60.5624 36.1124 58.6934 35.1398L56.8229 36.2268L55.1449 35.258L57.0418 34.1557C54.8931 32.6338 53.6977 30.8488 53.4424 28.7931L57.6159 28.5795C57.816 30.1623 58.5673 31.4706 59.8769 32.5081L64.9241 29.575C63.4215 28.1675 62.5918 26.9735 62.4414 26.0048C62.2845 25.0322 62.9574 24.113 64.4604 23.2395C65.9571 22.3698 67.7064 21.9578 69.7149 22.0151C71.7301 22.0685 73.6227 22.5606 75.3994 23.4874L76.6991 22.7321L78.3771 23.7009L77.051 24.4715C78.829 25.6577 79.9959 27.0842 80.5454 28.7471L76.452 29.1514C76.1161 28.0148 75.3664 27.0041 74.2159 26.1191L69.3325 28.957L69.4118 29.0028C70.941 30.4331 71.7908 31.6535 71.9281 32.6605ZM64.1933 34.2473C65.0824 34.2969 65.8256 34.1481 66.436 33.7934C67.0399 33.4425 67.334 33.0496 67.3052 32.6225C67.2767 32.1952 66.8913 31.5849 66.1559 30.8031L61.4762 33.5226C62.4006 33.9573 63.3041 34.1976 64.1933 34.2473ZM68.1206 27.7174L72.6166 25.1046C71.7645 24.689 70.9205 24.4677 70.084 24.4411C69.2543 24.4105 68.544 24.563 67.96 24.9024C67.3825 25.238 67.0945 25.6044 67.1035 26.0048C67.119 26.4015 67.4513 26.9737 68.1206 27.7174Z" fill="#FED44C"/>
<path d="M49.7407 75.287L41.6245 80.012C39.8136 81.0658 37.657 81.5104 35.2534 81.2965C33.7224 81.1647 32.0926 80.7531 30.3804 80.0449C29.4585 79.6663 28.5202 79.2057 27.5653 78.6454C16.6504 72.3569 7.80993 57.03 7.84287 44.5181C7.84287 44.5181 7.84287 44.5181 7.84287 44.502V44.0575C7.90869 41.1106 8.46837 38.6082 9.42323 36.5672C9.85127 35.6782 10.3451 34.8711 10.9214 34.1637C11.6951 33.2087 12.6005 32.4178 13.6212 31.8253L21.7374 27.1172C20.7167 27.7096 19.8113 28.4837 19.0376 29.4548C18.4613 30.1461 17.9674 30.9532 17.5559 31.8422C16.5846 33.8832 16.0248 36.4024 15.9754 39.3325C15.9754 39.4804 15.959 39.6291 15.959 39.7939C15.9261 52.3218 24.7666 67.6319 35.6814 73.9373C36.6363 74.4807 37.5911 74.9413 38.513 75.3207C40.2087 76.0281 41.8385 76.4397 43.3695 76.5876C45.7732 76.8022 47.9298 76.3408 49.7407 75.287Z" fill="#FED44C"/>
<path d="M49.7446 75.295L41.6226 80.015C45.1739 77.9512 47.3791 73.5686 47.3968 67.3466L55.5188 62.6266C55.5012 68.8486 53.2959 73.2312 49.7446 75.295Z" fill="#F9C73A"/>
<path d="M13.6196 31.8322L21.7417 27.1122C25.3404 25.0209 30.3217 25.3113 35.8121 28.4811L27.69 33.2011C22.1997 30.0313 17.2184 29.7409 13.6196 31.8322Z" fill="#F9C73A"/>
<path d="M27.6904 33.2012L35.8125 28.4812C46.7123 34.7742 55.5547 50.0894 55.5191 62.6266L47.3971 67.3466C47.4326 54.8094 38.5903 39.4942 27.6904 33.2012Z" fill="#F9C73A"/>
<path d="M29.6059 31.7354C40.5057 38.0284 49.3481 53.3436 49.3125 65.8808C49.277 78.4055 40.3769 83.477 29.477 77.184C18.5667 70.8849 9.72435 55.5698 9.75987 43.045C9.79539 30.5078 18.6955 25.4363 29.6059 31.7354Z" fill="#F2BC36"/>
<path d="M27.7092 26.4854C41.8569 34.6536 53.287 54.4635 53.2409 70.7207C53.1949 86.9772 41.69 93.5332 27.5423 85.365C13.3946 77.1968 1.95404 57.3933 2.00014 41.1368C2.04622 24.8796 13.5616 18.3172 27.7092 26.4854ZM27.5613 78.6498C38.4612 84.9428 47.3613 79.8714 47.3968 67.3466C47.4324 54.8094 38.59 39.4942 27.6902 33.2012C16.7799 26.9021 7.87974 31.9736 7.8442 44.5108C7.80868 57.0356 16.651 72.3507 27.5613 78.6498Z" fill="#F9C73A"/>
<path d="M28.7216 67.489L30.1321 66.6693L30.1253 69.0554L28.7148 69.8751L28.7216 67.489Z" fill="#E2AB30"/>
<path d="M21.9038 57.016L23.3143 56.1963C24.9261 58.7373 26.5908 60.6615 28.2957 61.955L26.8852 62.7747C25.1803 61.4812 23.5156 59.557 21.9038 57.016Z" fill="#FED44C"/>
<path d="M28.7314 63.9435L30.1419 63.1238C31.0686 63.5483 31.7978 63.6605 32.3423 63.4602L30.9318 64.2799C30.3873 64.4802 29.6581 64.368 28.7314 63.9435Z" fill="#FED44C"/>
<path d="M32.5397 63.3682L31.1292 64.1879C31.0679 64.2235 31.0021 64.2542 30.9316 64.2799L32.3421 63.4602C32.4126 63.4344 32.4784 63.4038 32.5397 63.3682Z" fill="black"/>
<path d="M28.7484 57.9749L30.1589 57.1552L30.142 63.1238L28.7314 63.9435L28.7484 57.9749Z" fill="#E2AB30"/>
<path d="M28.7598 53.9298L30.1703 53.1101L30.2597 53.1617L28.8492 53.9814L28.7598 53.9298Z" fill="#FED44C"/>
<path d="M24.7822 46.3028L26.1927 45.4832C25.7813 45.7223 25.5697 46.1764 25.5677 46.8572C25.5657 47.5913 25.7557 48.2894 26.1378 48.9436C26.5263 49.602 27.2534 50.4335 28.3256 51.4495L26.9151 52.2692C25.8429 51.2532 25.1158 50.4216 24.7273 49.7633C24.3452 49.1091 24.1552 48.4109 24.1572 47.6769C24.1592 46.9961 24.3708 46.542 24.7822 46.3028Z" fill="#FED44C"/>
<path d="M28.8491 53.9814L30.2596 53.1617C32.4684 55.0402 34.0889 56.7844 35.1274 58.3988L33.7169 59.2185C32.6784 57.6041 31.0579 55.8599 28.8491 53.9814Z" fill="#FED44C"/>
<path d="M35.1379 67.277L33.7274 68.0967C34.7431 67.5064 35.2585 66.3266 35.2636 64.5451C35.2691 62.6071 34.7494 60.829 33.7173 59.2186L35.1278 58.3989C36.1599 60.0093 36.6796 61.7874 36.6741 63.7254C36.669 65.5069 36.1536 66.6868 35.1379 67.277Z" fill="#FED44C"/>
<path d="M28.7774 47.7047L30.1879 46.885L30.1703 53.1102L28.7598 53.9299L28.7774 47.7047Z" fill="#E2AB30"/>
<path d="M22.1768 42.4703L23.5872 41.6507C23.6571 41.61 23.7294 41.5722 23.8041 41.5372C24.9702 40.9973 26.4863 41.2036 28.3521 42.1703L26.9416 42.99C25.0758 42.0233 23.5597 41.817 22.3936 42.3569C22.3189 42.3919 22.2466 42.4297 22.1768 42.4703Z" fill="#FED44C"/>
<path d="M26.9463 41.3311L28.3568 40.5115L30.2031 41.5775L28.7926 42.3971L26.9463 41.3311Z" fill="#FED44C"/>
<path d="M28.7924 42.3972L30.2029 41.5775L30.1981 43.273L28.7876 44.0927L28.7924 42.3972Z" fill="#E2AB30"/>
<path d="M28.7876 44.0926L30.1981 43.2729C32.3122 44.6703 34.3096 46.6544 36.1901 49.2178L34.7796 50.0375C32.8991 47.4741 30.9017 45.49 28.7876 44.0926Z" fill="#FED44C"/>
<path d="M34.78 50.0375L36.1905 49.2178L34.3099 51.1911L32.8994 52.0107L34.78 50.0375Z" fill="#E2AB30"/>
<path d="M33.7171 59.2186C34.7492 60.829 35.2688 62.6071 35.2633 64.5451C35.2579 66.476 34.6529 67.7001 33.4611 68.2328C32.263 68.7618 30.6831 68.5115 28.7215 67.489L28.7147 69.8751L26.8683 68.8091L26.8752 66.3864C24.2439 64.5584 21.8835 61.9896 19.7939 58.6804L21.904 57.016C23.5158 59.557 25.1805 61.4812 26.8854 62.7747L26.9037 56.3437C24.7332 54.4949 23.1446 52.791 22.1379 51.2393C21.1313 49.6874 20.6307 47.9499 20.6361 46.0409C20.6415 44.1323 21.2273 42.9043 22.3935 42.3569C23.5597 41.817 25.0757 42.0233 26.9415 42.99L26.9462 41.3312L28.7926 42.3972L28.7878 44.0927C30.9019 45.49 32.8993 47.4741 34.7798 50.0375L32.8992 52.0108C31.6308 50.2344 30.259 48.8026 28.7776 47.7047L28.7599 53.9298L28.8493 53.9815C31.0581 55.8599 32.6786 57.6041 33.7171 59.2186ZM30.9318 64.2799C31.4699 64.0832 31.7401 63.5992 31.7423 62.8285C31.7445 62.0503 31.5354 61.3192 31.115 60.6209C30.6882 59.9186 29.9036 59.0391 28.7484 57.9748L28.7315 63.9435C29.6582 64.368 30.3874 64.4802 30.9318 64.2799ZM26.9152 52.2692L26.9315 46.5359C26.0687 46.126 25.3907 46.0285 24.8974 46.244C24.4104 46.4627 24.1595 46.9354 24.1574 47.677C24.1553 48.411 24.3453 49.1091 24.7274 49.7634C25.1159 50.4217 25.843 51.2532 26.9152 52.2692Z" fill="#F9C73A"/>
<path d="M61.3707 66.001C61.3378 74.0845 58.4897 79.7637 53.8966 82.4309L45.764 87.1559C50.3735 84.4718 53.2217 78.7926 53.2381 70.726C53.2875 54.461 41.8623 34.6558 27.7043 26.4903C20.5924 22.3746 14.1389 21.996 9.47998 24.6961L17.5961 19.9872C22.255 17.271 28.7085 17.6496 35.8369 21.7653C49.9785 29.9308 61.4036 49.736 61.3707 66.001Z" fill="#FED44C"/>
<path d="M43.518 77.6744L43.982 79.2398L43.0218 77.9193L41.3039 81.0848L41.8658 77.5273L40.3005 77.9914L41.6209 77.0311L38.4556 75.3134L42.0129 75.8751L41.5489 74.3099L42.5091 75.6303L44.2269 72.465L43.6651 76.0223L45.2304 75.5583L43.91 76.5184L47.0753 78.2364L43.518 77.6744Z" fill="white"/>
<path d="M83.4163 26.1046L84.2763 29.0061L82.4966 26.5585L79.3124 32.4259L80.3539 25.8319L77.4525 26.6921L79.9 24.9122L74.0327 21.7282L80.6266 22.7695L79.7664 19.8683L81.5462 22.3156L84.7303 16.4485L83.689 23.0423L86.5903 22.1823L84.1429 23.9619L90.01 27.1462L83.4163 26.1046Z" fill="white"/>
</svg>
