<svg width="64" height="64" viewBox="0 0 64 64" fill="none" xmlns="http://www.w3.org/2000/svg">
<rect width="64" height="64" rx="32" fill="#0166FE"/>
<path d="M54.5219 45.6391C49.5661 41.1591 42.9962 38.692 36.0226 38.692H27.9774C21.0039 38.692 14.4339 41.1591 9.47813 45.6391C4.54658 50.0972 1.83067 55.9818 1.83067 62.2093C1.83067 63.1983 2.73119 64 3.84196 64H60.158C61.2688 64 62.1693 63.1983 62.1693 62.2093C62.1693 55.9818 59.4534 50.0972 54.5219 45.6391Z" fill="white"/>
<path d="M24.2969 35.5941C22.7018 35.5941 21.2533 35.2979 19.9512 34.7054C18.6361 34.1195 17.5846 33.208 16.7969 31.9711C16.0091 30.7341 15.6152 29.1748 15.6152 27.2933C15.6152 25.7959 15.9245 24.4548 16.543 23.2699C17.1615 22.085 18.0599 21.1573 19.2383 20.4867C20.4232 19.8096 21.8164 19.4711 23.418 19.4711C24.0951 19.4711 24.7526 19.585 25.3906 19.8129C26.0352 20.0407 26.543 20.3728 26.9141 20.809L27.2363 19.7738H30.6152V25.5062H27.5977C27.3958 24.6859 27.0085 24.0642 26.4355 23.641C25.8626 23.2178 25.2637 23.0062 24.6387 23.0062C23.597 23.0062 22.7734 23.3871 22.168 24.1488C21.5625 24.9105 21.2598 25.9587 21.2598 27.2933C21.2598 28.641 21.5592 29.6989 22.1582 30.4672C22.7572 31.2289 23.6035 31.6097 24.6973 31.6097C24.9577 31.6097 25.2376 31.5837 25.5371 31.5316C25.7585 31.4926 25.9668 31.4405 26.1621 31.3754C26.3574 31.3038 26.4876 31.2614 26.5527 31.2484V29.8715H24.6777V26.9711H30.9375V33.9535C29.9349 34.4873 28.8607 34.8942 27.7148 35.1742C26.569 35.4541 25.4297 35.5941 24.2969 35.5941ZM40.8733 35.5941C39.2782 35.5941 37.8297 35.2979 36.5276 34.7054C35.2125 34.1195 34.161 33.208 33.3733 31.9711C32.5855 30.7341 32.1916 29.1748 32.1916 27.2933C32.1916 25.7959 32.5009 24.4548 33.1194 23.2699C33.7379 22.085 34.6363 21.1573 35.8147 20.4867C36.9996 19.8096 38.3928 19.4711 39.9944 19.4711C40.6715 19.4711 41.329 19.585 41.967 19.8129C42.6116 20.0407 43.1194 20.3728 43.4905 20.809L43.8127 19.7738H47.1916V25.5062H44.1741C43.9722 24.6859 43.5849 24.0642 43.012 23.641C42.439 23.2178 41.8401 23.0062 41.2151 23.0062C40.1734 23.0062 39.3498 23.3871 38.7444 24.1488C38.1389 24.9105 37.8362 25.9587 37.8362 27.2933C37.8362 28.641 38.1357 29.6989 38.7346 30.4672C39.3336 31.2289 40.1799 31.6097 41.2737 31.6097C41.5341 31.6097 41.814 31.5837 42.1135 31.5316C42.3349 31.4926 42.5432 31.4405 42.7385 31.3754C42.9338 31.3038 43.064 31.2614 43.1291 31.2484V29.8715H41.2541V26.9711H47.5139V33.9535C46.5113 34.4873 45.4371 34.8942 44.2913 35.1742C43.1454 35.4541 42.0061 35.5941 40.8733 35.5941Z" fill="white"/>
</svg>
