<svg width="24" height="24" viewBox="0 0 24 24" fill="none" xmlns="http://www.w3.org/2000/svg">
<g clip-path="url(#clip0_151_5560)">
<path d="M11.8112 1.2491L11.329 0.381693L11.8112 1.2491C11.9286 1.18383 12.0714 1.18383 12.1888 1.2491L12.6747 0.375078L12.1888 1.2491C12.7569 1.56492 13.4292 1.63558 14.0506 1.44478C14.179 1.40534 14.3186 1.43503 14.4199 1.52329C14.91 1.95033 15.5529 2.15922 16.2003 2.10177C16.3341 2.0899 16.4646 2.14798 16.5453 2.25536L17.3151 1.67676L16.5453 2.25536C16.9358 2.77495 17.5212 3.11294 18.1665 3.19136C18.2998 3.20757 18.4153 3.2915 18.472 3.41331C18.7459 4.00275 19.2483 4.45507 19.8631 4.66593C19.9902 4.70951 20.0858 4.81563 20.1158 4.94655C20.2612 5.58007 20.6586 6.12695 21.2162 6.46104C21.3314 6.53008 21.4028 6.65374 21.405 6.78806C21.4155 7.43797 21.6904 8.05551 22.1664 8.49822C22.2647 8.58972 22.3089 8.72552 22.2831 8.85735L23.2645 9.04937L22.2831 8.85736C22.1582 9.49525 22.2988 10.1565 22.6723 10.6885C22.7495 10.7984 22.7644 10.9404 22.7117 11.064C22.457 11.662 22.457 12.338 22.7117 12.936C22.7644 13.0596 22.7495 13.2016 22.6723 13.3115C22.2988 13.8435 22.1582 14.5047 22.2831 15.1426L23.2645 14.9506L22.2831 15.1426C22.3089 15.2745 22.2647 15.4103 22.1664 15.5018C21.6904 15.9445 21.4155 16.562 21.405 17.2119C21.4028 17.3463 21.3314 17.4699 21.2162 17.539C20.6586 17.873 20.2612 18.4199 20.1158 19.0534C20.0858 19.1844 19.9902 19.2905 19.8631 19.3341C19.2483 19.5449 18.7459 19.9973 18.472 20.5867C18.4153 20.7085 18.2998 20.7924 18.1665 20.8086C17.5212 20.8871 16.9358 21.225 16.5453 21.7446C16.4646 21.852 16.3341 21.9101 16.2003 21.8982C15.5529 21.8408 14.91 22.0497 14.4199 22.4767C14.3186 22.565 14.179 22.5947 14.0506 22.5552C13.4292 22.3644 12.7569 22.4351 12.1888 22.7509C12.0714 22.8162 11.9286 22.8162 11.8112 22.7509C11.2431 22.4351 10.5708 22.3644 9.94945 22.5552C9.82103 22.5947 9.68136 22.565 9.58008 22.4767C9.09005 22.0497 8.44715 21.8408 7.7997 21.8982C7.66589 21.9101 7.53544 21.852 7.45473 21.7446C7.0642 21.225 6.47877 20.8871 5.83352 20.8086C5.70017 20.7924 5.58465 20.7085 5.52803 20.5867C5.25406 19.9973 4.7517 19.5449 4.13686 19.3341C4.00979 19.2905 3.91424 19.1844 3.88419 19.0534C3.73875 18.4199 3.34142 17.873 2.78385 17.539C2.66862 17.4699 2.59722 17.3463 2.59504 17.2119C2.5845 16.562 2.30955 15.9445 1.83363 15.5018C1.73527 15.4103 1.69115 15.2745 1.71694 15.1426C1.84175 14.5047 1.70121 13.8435 1.32773 13.3115C1.25054 13.2016 1.23562 13.0596 1.28826 12.936C1.54297 12.338 1.54297 11.662 1.28826 11.064C1.23562 10.9404 1.25054 10.7984 1.32773 10.6885C1.70121 10.1565 1.84175 9.49525 1.71694 8.85735C1.69115 8.72552 1.73527 8.58972 1.83363 8.49822C2.30955 8.05551 2.5845 7.43797 2.59504 6.78806C2.59722 6.65375 2.66862 6.53008 2.78385 6.46104C3.34142 6.12695 3.73875 5.58007 3.88419 4.94655C3.91424 4.81563 4.00979 4.70951 4.13686 4.66593C4.7517 4.45507 5.25406 4.00275 5.52803 3.41332C5.58465 3.2915 5.70017 3.20757 5.83353 3.19136C6.47877 3.11294 7.0642 2.77495 7.45473 2.25536C7.53544 2.14798 7.66589 2.0899 7.7997 2.10177C8.44715 2.15922 9.09005 1.95033 9.58008 1.52329C9.68136 1.43503 9.82103 1.40534 9.94944 1.44478C10.5708 1.63558 11.2431 1.56492 11.8112 1.2491Z" stroke="#FFA800" stroke-width="2"/>
<path d="M8.68359 15.8739C7.96582 15.8739 7.31396 15.7406 6.72803 15.474C6.13623 15.2103 5.66309 14.8002 5.30859 14.2435C4.9541 13.6869 4.77686 12.9852 4.77686 12.1385C4.77686 11.4647 4.91602 10.8612 5.19434 10.328C5.47266 9.7948 5.87695 9.37732 6.40723 9.07556C6.94043 8.77087 7.56738 8.61853 8.28809 8.61853C8.59277 8.61853 8.88867 8.6698 9.17578 8.77234C9.46582 8.87488 9.69434 9.02429 9.86133 9.22058L10.0063 8.75476H11.5269V11.3344H10.1689C10.0781 10.9652 9.90381 10.6854 9.646 10.495C9.38818 10.3046 9.11865 10.2094 8.8374 10.2094C8.36865 10.2094 7.99805 10.3807 7.72559 10.7235C7.45312 11.0663 7.31689 11.538 7.31689 12.1385C7.31689 12.745 7.45166 13.2211 7.72119 13.5668C7.99072 13.9095 8.37158 14.0809 8.86377 14.0809C8.98096 14.0809 9.10693 14.0692 9.2417 14.0458C9.34131 14.0282 9.43506 14.0048 9.52295 13.9755C9.61084 13.9432 9.66943 13.9242 9.69873 13.9183V13.2987H8.85498V11.9935H11.6719V15.1356C11.2207 15.3759 10.7373 15.559 10.2217 15.6849C9.70605 15.8109 9.19336 15.8739 8.68359 15.8739ZM16.011 15.8739C15.2932 15.8739 14.6413 15.7406 14.0554 15.474C13.4636 15.2103 12.9905 14.8002 12.636 14.2435C12.2815 13.6869 12.1042 12.9852 12.1042 12.1385C12.1042 11.4647 12.2434 10.8612 12.5217 10.328C12.8 9.7948 13.2043 9.37732 13.7346 9.07556C14.2678 8.77087 14.8948 8.61853 15.6155 8.61853C15.9202 8.61853 16.2161 8.6698 16.5032 8.77234C16.7932 8.87488 17.0217 9.02429 17.1887 9.22058L17.3337 8.75476H18.8542V11.3344H17.4963C17.4055 10.9652 17.2312 10.6854 16.9734 10.495C16.7156 10.3046 16.446 10.2094 16.1648 10.2094C15.696 10.2094 15.3254 10.3807 15.053 10.7235C14.7805 11.0663 14.6443 11.538 14.6443 12.1385C14.6443 12.745 14.779 13.2211 15.0486 13.5668C15.3181 13.9095 15.699 14.0809 16.1912 14.0809C16.3083 14.0809 16.4343 14.0692 16.5691 14.0458C16.6687 14.0282 16.7624 14.0048 16.8503 13.9755C16.9382 13.9432 16.9968 13.9242 17.0261 13.9183V13.2987H16.1824V11.9935H18.9993V15.1356C18.5481 15.3759 18.0647 15.559 17.5491 15.6849C17.0334 15.8109 16.5207 15.8739 16.011 15.8739Z" fill="#FFA800"/>
</g>
<defs>
<clipPath id="clip0_151_5560">
<rect width="24" height="24" fill="white"/>
</clipPath>
</defs>
</svg>
