<svg width="33" height="32" viewBox="0 0 33 32" fill="none" xmlns="http://www.w3.org/2000/svg">
<g clip-path="url(#clip0_73_3444)">
<path d="M2.38147 32H30.2809V6.22123e-07H2.38147V32Z" fill="black" stroke="black" stroke-width="0.0548885" stroke-miterlimit="10"/>
<path d="M4.81836 23.9768H28.2023V1.62839H4.81836V23.9768Z" fill="white" stroke="black" stroke-width="0.0548885" stroke-miterlimit="10"/>
<path d="M5.72784 2.46997H16.2103C16.2103 2.46997 15.6257 2.90222 15.498 3.4511C15.3704 3.99999 15.3972 4.39107 15.4913 4.65179C15.4913 4.65179 15.4913 4.78215 15.4174 4.8782C15.3435 4.97426 15.3502 4.67923 15.0075 4.69982C14.6648 4.7204 14.1877 4.61062 13.5494 5.78386C13.5494 5.78386 13.3411 6.32589 13.3075 6.79244C13.2739 7.25899 13.2336 7.89707 13.294 8.06174C13.3545 8.2264 12.6422 8.18524 12.6422 8.18524C12.6422 8.18524 12.4608 8.23326 12.4541 8.30874C12.4474 8.38421 12.4541 8.78215 12.4608 9.00856C12.4675 9.23498 12.4138 9.36534 12.3936 9.57803C12.3735 9.79073 12.2391 9.98283 12.2592 10.223C12.2794 10.4631 12.649 10.4768 12.864 10.4974C13.079 10.518 13.0588 10.566 12.9379 10.6003C12.8169 10.6346 12.4608 10.6415 12.4742 11.0806C12.4877 11.5197 12.6221 12.5626 12.6557 12.8439C12.6893 13.1252 12.4474 12.8713 12.4742 12.9537C12.5011 13.036 12.3802 12.9056 12.3063 13.2213C12.2323 13.5369 12.3264 13.482 12.36 13.5231C12.3936 13.5643 12.4339 13.5643 12.4339 13.5643L12.3331 13.7084L12.2995 13.8731L12.3533 13.9897L12.4071 14.0377C12.4071 14.0377 12.2727 14.1887 12.4138 14.3533C12.5549 14.518 12.4877 14.4425 12.4742 14.6003C12.4608 14.7581 12.1786 15.9314 12.2525 16.446C12.3264 16.9605 12.0778 17.1183 11.9703 17.3448C11.8628 17.5712 11.2379 18.566 11.2647 18.7993C11.2916 19.0326 11.2043 19.2796 11.1371 19.4099C11.0699 19.5403 10.7742 19.849 10.7876 20.1715C10.8011 20.494 10.8212 20.542 10.9691 20.6792C10.9691 20.6792 10.8414 21.1252 10.7944 21.3104C10.7473 21.4957 10.5659 22.223 10.5323 22.3533C10.4987 22.4837 10.4382 22.7307 10.4584 22.861L10.4382 22.9159H5.72784" fill="#1D2C49"/>
<path d="M5.72784 2.46999H16.2103C16.2103 2.46999 15.6257 2.90223 15.498 3.45112C15.3704 4 15.3972 4.39108 15.4913 4.6518C15.4913 4.6518 15.4913 4.78216 15.4174 4.87822C15.3435 4.97427 15.3502 4.67925 15.0075 4.69983C14.6648 4.72041 14.1877 4.61064 13.5494 5.78388C13.5494 5.78388 13.3411 6.3259 13.3075 6.79246C13.2739 7.25901 13.2336 7.89709 13.294 8.06175C13.3545 8.22642 12.6422 8.18525 12.6422 8.18525C12.6422 8.18525 12.4608 8.23328 12.4541 8.30875C12.4474 8.38422 12.4541 8.78216 12.4608 9.00858C12.4675 9.23499 12.4138 9.36535 12.3936 9.57805C12.3735 9.79074 12.2391 9.98285 12.2592 10.223C12.2794 10.4631 12.649 10.4768 12.864 10.4974C13.079 10.518 13.0588 10.566 12.9379 10.6003C12.8169 10.6347 12.4608 10.6415 12.4742 11.0806C12.4877 11.5197 12.6221 12.5626 12.6557 12.8439C12.6893 13.1252 12.4474 12.8714 12.4742 12.9537C12.5011 13.036 12.3802 12.9057 12.3063 13.2213C12.2323 13.5369 12.3264 13.482 12.36 13.5232C12.3936 13.5643 12.4339 13.5643 12.4339 13.5643L12.3331 13.7084L12.2995 13.8731L12.3533 13.9897L12.4071 14.0377C12.4071 14.0377 12.2727 14.1887 12.4138 14.3533C12.5549 14.518 12.4877 14.4425 12.4742 14.6003C12.4608 14.7582 12.1786 15.9314 12.2525 16.446C12.3264 16.9606 12.0778 17.1184 11.9703 17.3448C11.8628 17.5712 11.2379 18.566 11.2647 18.7993C11.2916 19.0326 11.2043 19.2796 11.1371 19.41C11.0699 19.5403 10.7742 19.8491 10.7876 20.1715C10.8011 20.494 10.8212 20.542 10.9691 20.6792C10.9691 20.6792 10.8414 21.1252 10.7944 21.3105C10.7473 21.4957 10.5659 22.223 10.5323 22.3533C10.4987 22.4837 10.4382 22.7307 10.4584 22.8611L10.4382 22.916H5.72784V2.46999Z" stroke="#1D2C49" stroke-width="0.0548885" stroke-miterlimit="10"/>
<path d="M12.0643 22.9159H17.6751C17.6751 22.9159 17.7222 22.2367 17.8767 21.9279C18.0313 21.6192 17.9977 21.2418 17.9842 20.9948C17.9708 20.7478 18.0044 20.3156 17.8095 20.2058L17.7759 19.9039C17.7759 19.9039 17.5811 19.4511 17.6348 19.3344C17.6214 19.2041 17.5811 18.0995 17.5811 18.0995C17.5811 18.0995 17.6415 17.8936 17.7558 17.8113C17.7894 17.7084 17.8163 17.1115 17.6953 16.988C17.5878 16.8645 17.5072 16.8713 17.2653 16.8439C17.0234 16.8164 17.1577 17.0977 16.3245 15.7804C16.1834 15.5334 16.0356 15.3001 15.9684 15.2109C15.9012 15.1218 15.8004 15.1218 15.6458 15.108C15.4913 15.0943 15.4711 15.0874 15.3368 14.8336L15.2024 14.5797C15.2024 14.5797 15.1679 14.5111 15.0306 14.9434C14.8933 15.3756 14.7522 14.9434 14.4834 16.0206C14.3154 16.3842 14.3019 16.4254 14.2751 16.9125C14.2079 17.1595 14.0668 17.2212 13.9189 17.3173C13.7711 17.4133 13.7509 17.6809 13.6972 17.7495C13.6434 17.8182 13.4284 17.8182 13.3142 18.2298C13.1999 18.6415 13.1798 18.4013 13.294 18.7856C13.294 18.7856 13.126 19.4442 13.0252 19.5952C12.9244 19.7461 12.7632 20.1646 12.7161 20.3567C12.6691 20.5489 12.4608 20.8233 12.3062 20.8507C12.1517 20.8782 11.977 21.4545 11.9568 21.6123C11.9367 21.7701 11.8762 22.614 11.9568 22.7375C12.0039 22.861 12.0643 22.9159 12.0643 22.9159Z" fill="#1D2C49"/>
<path d="M12.0643 22.916H17.6751C17.6751 22.916 17.7222 22.2367 17.8767 21.928C18.0313 21.6192 17.9977 21.2419 17.9842 20.9949C17.9708 20.7479 18.0044 20.3156 17.8095 20.2058L17.7759 19.9039C17.7759 19.9039 17.5811 19.4511 17.6348 19.3345C17.6214 19.2041 17.5811 18.0995 17.5811 18.0995C17.5811 18.0995 17.6415 17.8937 17.7558 17.8113C17.7894 17.7084 17.8163 17.1115 17.6953 16.988C17.5878 16.8645 17.5072 16.8714 17.2653 16.8439C17.0234 16.8165 17.1577 17.0978 16.3245 15.7804C16.1834 15.5335 16.0356 15.3002 15.9684 15.211C15.9012 15.1218 15.8004 15.1218 15.6458 15.1081C15.4913 15.0943 15.4711 15.0875 15.3367 14.8336L15.2024 14.5798C15.2024 14.5798 15.1679 14.5112 15.0306 14.9434C14.8933 15.3756 14.7522 14.9434 14.4834 16.0206C14.3154 16.3842 14.3019 16.4254 14.2751 16.9125C14.2079 17.1595 14.0668 17.2213 13.9189 17.3173C13.7711 17.4134 13.7509 17.681 13.6972 17.7496C13.6434 17.8182 13.4284 17.8182 13.3142 18.2298C13.1999 18.6415 13.1798 18.4014 13.294 18.7856C13.294 18.7856 13.126 19.4443 13.0252 19.5952C12.9244 19.7461 12.7632 20.1647 12.7161 20.3568C12.6691 20.5489 12.4608 20.8233 12.3062 20.8508C12.1517 20.8782 11.977 21.4545 11.9568 21.6124C11.9367 21.7702 11.8762 22.6141 11.9568 22.7376C12.0039 22.8611 12.0643 22.916 12.0643 22.916Z" stroke="#1D2C49" stroke-width="0.0548885" stroke-miterlimit="10"/>
<path d="M17.702 2.46997H27.3153V22.9159H20.9643C20.9643 22.9159 20.9106 22.8748 20.8635 22.7444C20.8165 22.6141 20.2554 22.3876 20.0874 22.343C19.9194 22.2984 19.5868 21.7393 19.4726 21.6192C19.3987 21.5094 19.392 21.4237 19.392 21.4237L19.3281 20.3122C19.3281 20.3122 19.318 20.2298 19.3684 20.1715C19.4188 20.1132 19.5096 19.9657 19.4995 19.8456C19.4894 19.7255 19.4457 19.2384 19.4188 19.1767C19.392 19.1149 19.402 19.012 19.3987 18.9571C19.3953 18.9022 19.4625 18.741 19.4793 18.6827C19.4961 18.6243 19.6507 17.4099 19.6372 17.331C19.6238 17.2521 19.6305 16.6312 19.5297 16.566C19.4289 16.5008 19.5096 16.2127 19.476 16.1647C19.4424 16.1166 19.3214 16.1818 19.2777 16.0206C19.2341 15.8593 18.7738 14.7547 18.7738 14.7547L18.468 14.1098C18.468 14.1098 17.6415 12.8988 17.5441 12.8062C17.4467 12.7135 17.4231 12.1338 17.5105 11.9863C17.5978 11.8388 17.6415 12.0103 17.6516 12.0103C17.6617 12.0103 17.8868 12.1578 17.9842 12.0549C18.0817 11.952 18.337 11.5472 18.3404 11.3928C18.3437 11.2384 18.4143 9.70839 18.3672 9.63635C18.3504 9.56431 18.3101 9.30702 18.0413 9.21097C17.7726 9.11491 18.0481 9.01199 18.0413 8.86791C18.0346 8.72383 17.9943 8.62091 18.0917 8.68952C18.1892 8.75814 19.2912 9.38249 19.4356 9.40308C19.5801 9.42366 19.607 9.42709 19.7078 9.42709C19.8086 9.42709 19.9262 9.55402 19.9698 9.53687C20.0169 9.53687 20.1849 9.54373 20.5477 9.23498C20.9106 8.92623 20.9711 8.96054 21.0584 8.64493C21.1458 8.32932 21.1189 7.87992 21.3104 7.83189C21.5019 7.78386 21.6665 7.95882 21.4683 7.31388C21.3742 6.69296 21.3977 6.66551 21.4851 6.65865C21.5624 6.61748 21.5389 6.62778 21.7136 6.4288C21.8883 6.22983 21.8916 6.21954 21.9017 6.19896C21.9118 6.17838 21.9118 6.10976 21.9118 6.10976C21.9118 6.10976 21.9655 6.07546 21.9823 6.06174C21.9991 6.04802 22.0831 6.02057 22.0999 6.02057C22.1167 6.02057 22.0731 5.97254 22.1537 5.96911C22.4561 5.96911 23.9646 5.9794 23.9646 5.9794V5.80445C23.9646 5.80445 23.968 5.74613 24.0049 5.74956C24.0419 5.75299 24.0721 5.75642 24.0856 5.77357C24.099 5.79073 24.4618 5.78386 24.4618 5.78386C24.4618 5.78386 24.5257 5.72555 24.6399 5.72555C24.7541 5.72555 25.7621 5.72898 25.7621 5.72898C25.7621 5.72898 25.7856 5.82503 25.836 5.82503C25.8864 5.82503 25.9704 5.83875 25.967 5.78386C26.135 5.78386 26.5718 5.78043 26.5718 5.78043C26.5718 5.78043 26.5953 5.78043 26.5919 5.63292C26.5953 5.50599 26.5987 5.52657 26.172 5.52657C26.0174 5.52657 25.9872 5.52314 25.9872 5.52314C25.9872 5.52314 26.0107 5.46826 25.9133 5.46826C25.8158 5.46826 25.7688 5.51971 25.7688 5.55059C25.7688 5.58146 25.7251 5.57803 25.7251 5.57803L24.5828 5.56774C24.5828 5.56774 24.5257 5.56088 24.5458 5.38935C24.566 5.21783 24.4988 5.14922 24.445 5.18695C24.3913 5.22469 24.351 5.24184 24.3443 5.25213C24.3375 5.26242 24.2838 5.19724 24.2771 5.13892C24.2703 5.08061 24.267 4.52486 24.267 4.51457C24.267 4.50428 24.2367 4.42194 24.1998 4.44596C24.1628 4.46997 24.099 4.43567 24.0889 4.47683C24.0788 4.518 24.0856 5.27958 24.0856 5.27958C24.0856 5.27958 24.0251 5.3276 23.9915 5.27272C23.9579 5.21783 23.9243 5.2487 23.931 5.18352C23.9377 5.11834 23.8907 5.07031 23.8907 5.07031H19.5499C19.5499 5.07031 19.5364 4.85762 19.5028 4.87134C19.4692 4.88506 19.2408 4.89193 19.2408 4.89193L19.2341 4.54201C19.2341 4.54201 19.2139 4.4391 19.14 4.50085C19.0728 4.50771 19.0795 4.80959 19.0728 4.8439C19.0661 4.8782 19.0123 4.8782 19.0123 4.8782V5.0017L18.7704 5.02915C18.7704 5.02915 18.4411 5.0909 18.3941 5.1252C18.3471 5.15951 18.1724 5.17323 18.1724 5.17323L18.0917 5.18695C18.0917 5.18695 18.038 5.03601 18.038 5.01543C18.038 4.99484 18.0313 4.85076 18.0313 4.85076C18.0313 4.85076 18.0447 4.90565 18.0178 4.80959C17.9909 4.71354 18.0044 4.63121 18.0044 4.63121C18.0044 4.63121 18.4277 4.4734 18.5016 4.33618C18.5755 4.19896 18.5755 3.67752 18.5083 3.46482C18.4411 3.25213 18.4008 3.19038 18.4008 3.13549C18.4008 3.08061 18.3807 2.90222 18.3807 2.90222C18.3807 2.90222 18.1186 2.765 17.9909 2.72383C17.8633 2.68266 17.6751 2.53858 17.6751 2.53858" fill="#FFA500"/>
<path d="M17.702 2.46999H27.3153V22.916H20.9643C20.9643 22.916 20.9106 22.8748 20.8635 22.7444C20.8165 22.6141 20.2554 22.3877 20.0874 22.3431C19.9194 22.2985 19.5868 21.7393 19.4726 21.6192C19.3987 21.5094 19.392 21.4237 19.392 21.4237L19.3281 20.3122C19.3281 20.3122 19.318 20.2298 19.3684 20.1715C19.4188 20.1132 19.5096 19.9657 19.4995 19.8456C19.4894 19.7256 19.4457 19.2384 19.4188 19.1767C19.392 19.1149 19.402 19.012 19.3987 18.9571C19.3953 18.9022 19.4625 18.741 19.4793 18.6827C19.4961 18.6244 19.6507 17.41 19.6372 17.331C19.6238 17.2521 19.6305 16.6312 19.5297 16.566C19.4289 16.5009 19.5096 16.2127 19.476 16.1647C19.4424 16.1166 19.3214 16.1818 19.2777 16.0206C19.2341 15.8594 18.7738 14.7547 18.7738 14.7547L18.468 14.1098C18.468 14.1098 17.6415 12.8988 17.5441 12.8062C17.4467 12.7136 17.4231 12.1338 17.5105 11.9863C17.5978 11.8388 17.6415 12.0103 17.6516 12.0103C17.6617 12.0103 17.8868 12.1578 17.9842 12.0549C18.0817 11.952 18.337 11.5472 18.3404 11.3928C18.3437 11.2384 18.4143 9.70841 18.3672 9.63637C18.3504 9.56433 18.3101 9.30704 18.0413 9.21098C17.7726 9.11493 18.0481 9.01201 18.0413 8.86793C18.0346 8.72385 17.9943 8.62093 18.0917 8.68954C18.1892 8.75815 19.2912 9.38251 19.4356 9.40309C19.5801 9.42367 19.607 9.4271 19.7078 9.4271C19.8086 9.4271 19.9262 9.55403 19.9698 9.53688C20.0169 9.53688 20.1849 9.54374 20.5477 9.23499C20.9106 8.92625 20.9711 8.96055 21.0584 8.64494C21.1458 8.32933 21.1189 7.87993 21.3104 7.83191C21.5019 7.78388 21.6665 7.95884 21.4683 7.3139C21.3742 6.69297 21.3977 6.66553 21.4851 6.65867C21.5624 6.6175 21.5389 6.62779 21.7136 6.42882C21.8883 6.22985 21.8916 6.21956 21.9017 6.19897C21.9118 6.17839 21.9118 6.10978 21.9118 6.10978C21.9118 6.10978 21.9655 6.07547 21.9823 6.06175C21.9991 6.04803 22.0831 6.02059 22.0999 6.02059C22.1167 6.02059 22.0731 5.97256 22.1537 5.96913C22.4561 5.96913 23.9646 5.97942 23.9646 5.97942V5.80446C23.9646 5.80446 23.968 5.74614 24.0049 5.74957C24.0419 5.753 24.0721 5.75644 24.0856 5.77359C24.099 5.79074 24.4618 5.78388 24.4618 5.78388C24.4618 5.78388 24.5257 5.72556 24.6399 5.72556C24.7541 5.72556 25.7621 5.72899 25.7621 5.72899C25.7621 5.72899 25.7856 5.82505 25.836 5.82505C25.8864 5.82505 25.9704 5.83877 25.967 5.78388C26.135 5.78388 26.5718 5.78045 26.5718 5.78045C26.5718 5.78045 26.5953 5.78045 26.5919 5.63294C26.5953 5.50601 26.5987 5.52659 26.172 5.52659C26.0174 5.52659 25.9872 5.52316 25.9872 5.52316C25.9872 5.52316 26.0107 5.46827 25.9133 5.46827C25.8158 5.46827 25.7688 5.51973 25.7688 5.5506C25.7688 5.58148 25.7251 5.57805 25.7251 5.57805L24.5828 5.56776C24.5828 5.56776 24.5257 5.56089 24.5458 5.38937C24.566 5.21784 24.4988 5.14923 24.445 5.18697C24.3913 5.2247 24.351 5.24186 24.3443 5.25215C24.3375 5.26244 24.2838 5.19726 24.2771 5.13894C24.2703 5.08062 24.267 4.52487 24.267 4.51458C24.267 4.50429 24.2367 4.42196 24.1998 4.44597C24.1628 4.46999 24.099 4.43568 24.0889 4.47685C24.0788 4.51801 24.0856 5.27959 24.0856 5.27959C24.0856 5.27959 24.0251 5.32762 23.9915 5.27273C23.9579 5.21784 23.9243 5.24872 23.931 5.18354C23.9377 5.11836 23.8907 5.07033 23.8907 5.07033H19.5499C19.5499 5.07033 19.5364 4.85764 19.5028 4.87136C19.4692 4.88508 19.2408 4.89194 19.2408 4.89194L19.2341 4.54203C19.2341 4.54203 19.2139 4.43911 19.14 4.50086C19.0728 4.50772 19.0795 4.80961 19.0728 4.84391C19.0661 4.87822 19.0123 4.87822 19.0123 4.87822V5.00172L18.7704 5.02916C18.7704 5.02916 18.4411 5.09091 18.3941 5.12522C18.3471 5.15952 18.1724 5.17324 18.1724 5.17324L18.0917 5.18697C18.0917 5.18697 18.038 5.03602 18.038 5.01544C18.038 4.99486 18.0313 4.85077 18.0313 4.85077C18.0313 4.85077 18.0447 4.90566 18.0178 4.80961C17.9909 4.71355 18.0044 4.63122 18.0044 4.63122C18.0044 4.63122 18.4277 4.47342 18.5016 4.3362C18.5755 4.19897 18.5755 3.67753 18.5083 3.46484C18.4411 3.25215 18.4008 3.1904 18.4008 3.13551C18.4008 3.08062 18.3807 2.90223 18.3807 2.90223C18.3807 2.90223 18.1186 2.76501 17.9909 2.72385C17.8633 2.68268 17.6751 2.5386 17.6751 2.5386L17.702 2.46999Z" stroke="#FFA500" stroke-width="0.0548885" stroke-miterlimit="10"/>
<path d="M9.61173 28.9949H6.0235V26.4974H9.61173C9.61173 26.4974 9.58485 25.777 8.90618 25.5643C8.76507 25.53 8.48956 25.53 8.31486 25.53H5.75472C5.75472 25.53 4.86774 25.6055 4.8543 26.5249C4.84086 27.4443 4.8543 28.9949 4.8543 28.9949C4.8543 28.9949 4.75351 30.024 6.27212 30.024H8.61052C8.61052 30.024 9.29591 29.9966 9.57813 29.3173C9.63188 29.1321 9.61173 28.9949 9.61173 28.9949Z" fill="white"/>
<path d="M9.61172 28.9948H6.0235V26.4974H9.61172C9.61172 26.4974 9.58485 25.777 8.90617 25.5643C8.76506 25.53 8.48956 25.53 8.31486 25.53H5.75472C5.75472 25.53 4.86774 25.6055 4.8543 26.5248C4.84086 27.4442 4.8543 28.9948 4.8543 28.9948C4.8543 28.9948 4.75351 30.024 6.27212 30.024H8.61052C8.61052 30.024 9.29591 29.9965 9.57813 29.3173C9.63188 29.132 9.61172 28.9948 9.61172 28.9948Z" stroke="black" stroke-width="0.0548885" stroke-miterlimit="10"/>
<path d="M11.4125 30.024H14.3601C14.3601 30.024 15.3546 29.9509 15.3636 29.0085C15.3972 27.8216 15.3569 27.2247 13.8494 27.2796C12.1046 27.2796 11.7978 27.2796 11.7978 27.2796H11.5469V26.4655H15.292C15.292 26.4655 15.2382 25.5276 14.2616 25.53C13.2849 25.5323 11.4125 25.53 11.4125 25.53C11.4125 25.53 10.4539 25.5598 10.4539 26.4655V27.3711C10.4539 27.3711 10.3552 28.2585 11.7798 28.2676C13.2043 28.2768 14.2975 28.2585 14.2975 28.2585V29.0452L10.4525 29.027C10.4525 29.027 10.5255 29.6123 10.9018 29.8229C11.0452 29.9142 11.3319 30.024 11.3319 30.024" fill="white"/>
<path d="M11.4125 30.024H14.3601C14.3601 30.024 15.3546 29.9509 15.3636 29.0085C15.3972 27.8216 15.3569 27.2247 13.8494 27.2796C12.1046 27.2796 11.7978 27.2796 11.7978 27.2796H11.5469V26.4655H15.292C15.292 26.4655 15.2382 25.5276 14.2616 25.53C13.2849 25.5323 11.4125 25.53 11.4125 25.53C11.4125 25.53 10.4539 25.5598 10.4539 26.4655V27.3711C10.4539 27.3711 10.3552 28.2585 11.7798 28.2676C13.2043 28.2768 14.2975 28.2585 14.2975 28.2585V29.0452L10.4525 29.027C10.4525 29.027 10.5255 29.6123 10.9018 29.8229C11.0452 29.9142 11.3319 30.024 11.3319 30.024" stroke="black" stroke-width="0.0548885" stroke-miterlimit="10"/>
<path d="M16.1363 27.3413H16.8418V26.6003H16.1363V27.3413Z" fill="white" stroke="black" stroke-width="0.0548885" stroke-miterlimit="10"/>
<path d="M16.1363 28.9194H16.8418V28.1372H16.1363V28.9194Z" fill="white" stroke="black" stroke-width="0.0548885" stroke-miterlimit="10"/>
<path d="M22.4863 26.4288H18.5151V29.1321H21.5389L21.5321 28.1784L20.0471 28.1715C20.0471 28.1715 19.57 28.0892 19.3819 27.7324C19.2542 27.4031 19.1601 27.41 19.4356 27.41C19.7111 27.41 22.4863 27.4305 22.4863 27.4305V29.0841C22.4863 29.0841 22.5065 30.0172 21.4985 30.024C20.4906 30.0309 18.6831 30.024 18.6831 30.024L18.374 30.027C18.374 30.027 17.7289 29.9142 17.5743 29.2762V26.4288C17.5743 26.4288 17.6281 25.5437 18.5016 25.53C19.3752 25.5163 21.6329 25.53 21.6329 25.53C21.6329 25.53 22.063 25.6192 22.2511 25.8525C22.3855 26.0995 22.4865 26.223 22.4863 26.2985C22.4863 26.3739 22.4863 26.4288 22.4863 26.4288Z" fill="white"/>
<path d="M22.4863 26.4289H18.5151V29.1321H21.5389L21.5321 28.1784L20.0471 28.1716C20.0471 28.1716 19.57 28.0892 19.3819 27.7325C19.2542 27.4031 19.1601 27.41 19.4356 27.41C19.7111 27.41 22.4863 27.4306 22.4863 27.4306V29.0841C22.4863 29.0841 22.5065 30.0172 21.4985 30.0241C20.4906 30.0309 18.6831 30.0241 18.6831 30.0241L18.374 30.0271C18.374 30.0271 17.7289 29.9143 17.5743 29.2762V26.4289C17.5743 26.4289 17.6281 25.5438 18.5016 25.5301C19.3752 25.5163 21.6329 25.5301 21.6329 25.5301C21.6329 25.5301 22.063 25.6192 22.2511 25.8525C22.3855 26.0995 22.4865 26.223 22.4863 26.2985C22.4863 26.374 22.4863 26.4289 22.4863 26.4289Z" stroke="black" stroke-width="0.0548885" stroke-miterlimit="10"/>
<path d="M24.4396 25.524H27.0468C27.0468 25.524 28.1038 25.4683 28.1129 26.5568C28.1219 27.6456 28.1129 28.8165 28.1129 28.8165C28.1129 28.8165 28.2651 30.0302 26.7958 30.027C25.3266 30.024 24.6546 30.027 24.6546 30.027C24.6546 30.027 23.3376 30.1612 23.3464 28.917C23.3554 27.673 23.3464 26.4745 23.3464 26.4745C23.3464 26.4745 23.4271 26.0082 23.6242 25.8343C23.8214 25.6604 23.9827 25.5781 24.0633 25.5688C24.1633 25.5335 24.2424 25.5234 24.2424 25.5234" fill="white"/>
<path d="M24.4396 25.524H27.0468C27.0468 25.524 28.1038 25.4683 28.1129 26.5568C28.1219 27.6456 28.1129 28.8165 28.1129 28.8165C28.1129 28.8165 28.2651 30.0302 26.7958 30.027C25.3266 30.024 24.6546 30.027 24.6546 30.027C24.6546 30.027 23.3376 30.1612 23.3464 28.917C23.3554 27.673 23.3464 26.4745 23.3464 26.4745C23.3464 26.4745 23.4271 26.0082 23.6242 25.8343C23.8214 25.6604 23.9827 25.5781 24.0633 25.5688C24.1633 25.5335 24.2424 25.5234 24.2424 25.5234L24.4396 25.524Z" stroke="black" stroke-width="0.0548885" stroke-miterlimit="10"/>
<path d="M24.314 29.155H27.199V26.3557H24.314V29.155Z" fill="black" stroke="black" stroke-width="0.0548885" stroke-miterlimit="10"/>
</g>
<defs>
<clipPath id="clip0_73_3444">
<rect width="32" height="32" fill="white" transform="translate(0.5)"/>
</clipPath>
</defs>
</svg>
