<svg width="32" height="32" viewBox="0 0 32 32" fill="none" xmlns="http://www.w3.org/2000/svg">
<path d="M2.83499 28.582H29.165V3.41801H2.83499V28.582Z" fill="white"/>
<path d="M3.85901 4.36559H15.6621C15.6621 4.36559 15.0039 4.85229 14.8601 5.47033C14.7163 6.08836 14.7466 6.52871 14.8525 6.82228C14.8525 6.82228 14.8525 6.96907 14.7693 7.07722C14.6861 7.18538 14.6936 6.85318 14.3078 6.87636C13.9219 6.89954 13.3847 6.77593 12.6659 8.09698C12.6659 8.09698 12.4314 8.70729 12.3936 9.23262C12.3557 9.75796 12.3103 10.4764 12.3784 10.6618C12.4465 10.8472 11.6445 10.8009 11.6445 10.8009C11.6445 10.8009 11.4402 10.855 11.4327 10.94C11.4251 11.0249 11.4327 11.473 11.4402 11.7279C11.4478 11.9829 11.3873 12.1297 11.3646 12.3692C11.3419 12.6087 11.1906 12.825 11.2132 13.0954C11.2359 13.3657 11.6521 13.3812 11.8942 13.4044C12.1363 13.4275 12.1136 13.4816 11.9774 13.5203C11.8412 13.5589 11.4402 13.5666 11.4554 14.061C11.4705 14.5555 11.6218 15.7297 11.6596 16.0465C11.6975 16.3632 11.4251 16.0774 11.4554 16.1701C11.4856 16.2628 11.3494 16.116 11.2662 16.4714C11.183 16.8268 11.2889 16.7649 11.3267 16.8113C11.3646 16.8577 11.41 16.8577 11.41 16.8577L11.2965 17.0199L11.2586 17.2053L11.3192 17.3366L11.3797 17.3907C11.3797 17.3907 11.2284 17.5607 11.3873 17.7461C11.5462 17.9315 11.4705 17.8465 11.4554 18.0242C11.4402 18.2019 11.1225 19.5229 11.2057 20.1023C11.2889 20.6818 11.009 20.8594 10.8879 21.1144C10.7668 21.3693 10.0632 22.4895 10.0935 22.7522C10.1237 23.0148 10.0254 23.293 9.94971 23.4397C9.87405 23.5865 9.54114 23.9342 9.55627 24.2973C9.57141 24.6604 9.59411 24.7144 9.76056 24.869C9.76056 24.869 9.6168 25.3711 9.56384 25.5797C9.51088 25.7883 9.30659 26.6072 9.26876 26.754C9.23093 26.9008 9.16284 27.1789 9.18554 27.3257L9.16284 27.3875H3.85901" fill="#1D2C49"/>
<path d="M10.9938 27.3875H17.3115C17.3115 27.3875 17.3645 26.6226 17.5385 26.275C17.7125 25.9273 17.6747 25.5024 17.6596 25.2243C17.6444 24.9462 17.6823 24.4595 17.4629 24.3359L17.425 23.996C17.425 23.996 17.2056 23.4861 17.2661 23.3548C17.251 23.208 17.2056 21.9642 17.2056 21.9642C17.2056 21.9642 17.2737 21.7324 17.4023 21.6397C17.4402 21.5238 17.4704 20.8517 17.3342 20.7127C17.2132 20.5736 17.1224 20.5813 16.85 20.5504C16.5776 20.5195 16.7289 20.8363 15.7907 19.353C15.6319 19.0749 15.4654 18.8122 15.3897 18.7118C15.3141 18.6113 15.2006 18.6113 15.0266 18.5959C14.8526 18.5804 14.8299 18.5727 14.6785 18.2869L14.5272 18.001C14.5272 18.001 14.4884 17.9238 14.3338 18.4105C14.1792 18.8972 14.0203 18.4105 13.7176 19.6234C13.5285 20.0328 13.5134 20.0792 13.4831 20.6277C13.4074 20.9058 13.2485 20.9753 13.0821 21.0835C12.9156 21.1916 12.8929 21.4929 12.8324 21.5702C12.7719 21.6474 12.5298 21.6474 12.4011 22.111C12.2725 22.5745 12.2498 22.3041 12.3784 22.7367C12.3784 22.7367 12.1893 23.4784 12.0758 23.6483C11.9623 23.8183 11.7807 24.2895 11.7278 24.5059C11.6748 24.7222 11.4402 25.0312 11.2662 25.0621C11.0922 25.093 10.8955 25.7419 10.8728 25.9196C10.8501 26.0973 10.782 27.0475 10.8728 27.1866C10.9258 27.3257 10.9938 27.3875 10.9938 27.3875Z" fill="#1D2C49"/>
<path d="M17.3417 4.36559H28.1662V27.3875H21.0151C21.0151 27.3875 20.9546 27.3411 20.9016 27.1943C20.8486 27.0475 20.2169 26.7926 20.0277 26.7424C19.8386 26.6922 19.464 26.0625 19.3354 25.9273C19.2522 25.8037 19.2446 25.7072 19.2446 25.7072L19.1727 24.4556C19.1727 24.4556 19.1614 24.3629 19.2181 24.2973C19.2749 24.2316 19.377 24.0655 19.3657 23.9303C19.3543 23.7951 19.3051 23.2466 19.2749 23.1771C19.2446 23.1076 19.256 22.9917 19.2522 22.9299C19.2484 22.8681 19.3241 22.6865 19.343 22.6208C19.3619 22.5552 19.5359 21.1878 19.5208 21.0989C19.5056 21.0101 19.5132 20.3109 19.3997 20.2375C19.2862 20.1642 19.377 19.8397 19.3392 19.7856C19.3014 19.7315 19.1652 19.8049 19.116 19.6234C19.0668 19.4418 18.5485 18.198 18.5485 18.198L18.2043 17.4718C18.2043 17.4718 17.2736 16.1083 17.1639 16.004C17.0542 15.8997 17.0278 15.2469 17.1261 15.0808C17.2245 14.9147 17.2736 15.1078 17.285 15.1078C17.2963 15.1078 17.5498 15.2739 17.6595 15.1581C17.7692 15.0422 18.0567 14.5864 18.0605 14.4125C18.0643 14.2387 18.1437 12.5159 18.0908 12.4348C18.0719 12.3537 18.0265 12.064 17.7238 11.9558C17.4212 11.8477 17.7314 11.7318 17.7238 11.5696C17.7163 11.4073 17.6709 11.2915 17.7806 11.3687C17.8903 11.446 19.1311 12.149 19.2938 12.1722C19.4565 12.1953 19.4867 12.1992 19.6002 12.1992C19.7137 12.1992 19.8461 12.3421 19.8953 12.3228C19.9483 12.3228 20.1374 12.3305 20.546 11.9829C20.9546 11.6352 21.0226 11.6739 21.121 11.3185C21.2194 10.9631 21.1891 10.4571 21.4047 10.403C21.6204 10.349 21.8057 10.546 21.5825 9.81976C21.4766 9.12061 21.5031 9.0897 21.6015 9.08198C21.6885 9.03563 21.662 9.04721 21.8587 8.82318C22.0554 8.59914 22.0592 8.58755 22.0706 8.56437C22.0819 8.5412 22.0819 8.46394 22.0819 8.46394C22.0819 8.46394 22.1424 8.42531 22.1613 8.40986C22.1803 8.39441 22.2748 8.36351 22.2938 8.36351C22.3127 8.36351 22.2635 8.30943 22.3543 8.30557C22.6948 8.30557 24.3933 8.31716 24.3933 8.31716V8.12016C24.3933 8.12016 24.3971 8.05449 24.4387 8.05835C24.4804 8.06222 24.5144 8.06608 24.5295 8.08539C24.5447 8.10471 24.9532 8.09698 24.9532 8.09698C24.9532 8.09698 25.0251 8.03132 25.1537 8.03132C25.2824 8.03132 26.4173 8.03518 26.4173 8.03518C26.4173 8.03518 26.4438 8.14334 26.5005 8.14334C26.5572 8.14334 26.6518 8.15879 26.648 8.09698C26.8372 8.09698 27.329 8.09312 27.329 8.09312C27.329 8.09312 27.3555 8.09312 27.3517 7.92702C27.3555 7.7841 27.3592 7.80728 26.8788 7.80728C26.7048 7.80728 26.6707 7.80341 26.6707 7.80341C26.6707 7.80341 26.6972 7.74161 26.5875 7.74161C26.4778 7.74161 26.4248 7.79955 26.4248 7.83432C26.4248 7.86908 26.3757 7.86522 26.3757 7.86522L25.0894 7.85363C25.0894 7.85363 25.0251 7.8459 25.0478 7.65277C25.0705 7.45963 24.9948 7.38238 24.9343 7.42487C24.8738 7.46736 24.8284 7.48667 24.8208 7.49826C24.8133 7.50985 24.7527 7.43646 24.7452 7.37079C24.7376 7.30512 24.7338 6.67936 24.7338 6.66777C24.7338 6.65618 24.6998 6.56348 24.6582 6.59052C24.6165 6.61756 24.5447 6.57893 24.5333 6.62528C24.522 6.67163 24.5295 7.52916 24.5295 7.52916C24.5295 7.52916 24.4614 7.58324 24.4236 7.52144C24.3858 7.45963 24.3479 7.4944 24.3555 7.421C24.3631 7.34761 24.3101 7.29353 24.3101 7.29353H19.4224C19.4224 7.29353 19.4073 7.05405 19.3695 7.0695C19.3316 7.08495 19.0744 7.09267 19.0744 7.09267L19.0668 6.69867C19.0668 6.69867 19.0441 6.58279 18.9609 6.65232C18.8852 6.66005 18.8928 6.99997 18.8852 7.03859C18.8777 7.07722 18.8171 7.07722 18.8171 7.07722V7.21628L18.5448 7.24718C18.5448 7.24718 18.174 7.31671 18.1211 7.35534C18.0681 7.39397 17.8714 7.40942 17.8714 7.40942L17.7806 7.42487C17.7806 7.42487 17.72 7.25491 17.72 7.23173C17.72 7.20855 17.7125 7.04632 17.7125 7.04632C17.7125 7.04632 17.7276 7.10812 17.6973 6.99997C17.6671 6.89181 17.6822 6.79911 17.6822 6.79911C17.6822 6.79911 18.1589 6.62142 18.2421 6.46691C18.3253 6.3124 18.3253 5.72527 18.2497 5.48578C18.174 5.24629 18.1286 5.17676 18.1286 5.11495C18.1286 5.05315 18.1059 4.85229 18.1059 4.85229C18.1059 4.85229 17.8108 4.69778 17.6671 4.65143C17.5233 4.60507 17.3115 4.44284 17.3115 4.44284" fill="#FFA500"/>
</svg>
