<svg width="32" height="32" viewBox="0 0 32 32" fill="none" xmlns="http://www.w3.org/2000/svg">
<g clip-path="url(#clip0_120_5560)">
<path fill-rule="evenodd" clip-rule="evenodd" d="M8.2 18L13.3333 23.5553L8.56667 24.6667L6 22.4447L8.2 18ZM21.748 7.33333L24 8.57133L23.2493 12.6667L17.9947 9.238L21.748 7.33333ZM7.75 7.33333C8 7.33333 8.20067 7.344 8.5 7.58333C8.91667 7.91666 10.4533 9.00466 10.4533 9.00466L10.732 9.5C11.2393 9.52533 11.252 9.57133 11.8927 10.042L26 19.6113C25.8913 19.8467 24.214 24.6667 24.214 24.6667H21.6247L6 8.16666C6 8.16666 6.25467 8.07133 6.5 7.91666C6.88467 7.67466 7.36867 7.33333 7.75 7.33333ZM9.66667 3.99999H4C3.648 4.17599 3.33334 4.37999 3.33334 5.08333V9.66666V11.0833L3.992 12.9153L3.33334 13.8333V14.5833L4 15.0833V16L3.33334 16.6667V19.1667L4 19.5833V22.3333C3.304 22.8287 3.33334 23.4167 3.33334 24.0927V27.25C4.89267 27.6393 4.634 28 6.41667 28C7.992 28 9 28 9 28C9.24134 27.9847 9.42934 27.934 9.66667 27.9113C10.3293 27.8473 10.75 27.3333 10.75 27.3333L12.5 28L13.1667 27.3333C13.1667 27.3333 14.0407 28.4153 14.25 28.6667L14.8333 28L16.6667 28.6667C16.6667 28.6667 17.3467 28.014 18.0833 28H21.6667C21.7213 27.9473 22.3333 27.3333 22.3333 27.3333C22.614 27.5013 22.366 28 24.9167 28C25.6207 28 26.25 27.8333 26.25 27.8333C26.142 27.4733 26.13 27.5467 25.9167 27.3333C25.9167 27.3333 27.5833 27.3333 28.6667 28V17.6713L27.3333 18.0833C27.3593 17.872 27.9753 17.5913 28 17.1667C28.0313 16.6313 27.9707 14.776 27.8927 14.384C27.8527 14.184 27.4707 13.598 27.3333 13.4167C27.4967 12.976 28 12.6667 28 12.6667V12.1667L28.6667 11.778V8.96333L28 6.16666L28.6667 5.44466V4.64733L27.9627 4.03733L25.676 3.65933L25.148 4.03733L24.884 3.59733C24.884 3.59733 21.428 3.33466 20.8013 3.33466C19.9993 3.33466 20.116 3.39466 19.8447 4.29799L18.694 4.41533L18.5833 3.99999H17.4167L17.6087 3.78866C17.8127 3.59599 17.7413 3.67333 17.9007 3.33333H13.8887C13.826 3.44799 13.5967 3.70799 13.416 3.99999C13.416 3.99999 13.064 3.99666 12.8 4.17266C12.536 4.34866 12.5373 4.66666 12.1853 4.66666C11.8333 4.66666 11.1033 4.66666 10.69 4.66666C9.81 4.66666 9.66667 3.99999 9.66667 3.99999Z" fill="#F44336"/>
</g>
<defs>
<clipPath id="clip0_120_5560">
<rect width="32" height="32" fill="white"/>
</clipPath>
</defs>
</svg>
