<svg width="25" height="24" viewBox="0 0 25 24" fill="none" xmlns="http://www.w3.org/2000/svg">
<g clip-path="url(#clip0_151_5560)">
<path d="M10.4494 1.44478C11.0708 1.63558 11.7431 1.56492 12.3112 1.2491C12.4286 1.18383 12.5714 1.18383 12.6888 1.2491C13.2569 1.56492 13.9292 1.63558 14.5506 1.44478C14.679 1.40534 14.8186 1.43503 14.9199 1.52329C15.4099 1.95033 16.0529 2.15922 16.7003 2.10177C16.8341 2.0899 16.9646 2.14798 17.0453 2.25536C17.4358 2.77495 18.0212 3.11294 18.6665 3.19136C18.7998 3.20757 18.9153 3.2915 18.972 3.41332C19.2459 4.00275 19.7483 4.45507 20.3631 4.66593C20.4902 4.70951 20.5858 4.81563 20.6158 4.94655C20.7612 5.58007 21.1586 6.12695 21.7162 6.46104C21.8314 6.53008 21.9028 6.65375 21.905 6.78806C21.9155 7.43797 22.1904 8.05551 22.6664 8.49822C22.7647 8.58972 22.8089 8.72552 22.7831 8.85736C22.6582 9.49525 22.7988 10.1565 23.1723 10.6885C23.2495 10.7984 23.2644 10.9404 23.2117 11.064C22.957 11.662 22.957 12.338 23.2117 12.936C23.2644 13.0596 23.2495 13.2016 23.1723 13.3115C22.7988 13.8435 22.6582 14.5047 22.7831 15.1426C22.8089 15.2745 22.7647 15.4103 22.6664 15.5018C22.1904 15.9445 21.9155 16.562 21.905 17.2119C21.9028 17.3463 21.8314 17.4699 21.7162 17.539C21.1586 17.873 20.7612 18.4199 20.6158 19.0534C20.5858 19.1844 20.4902 19.2905 20.3631 19.3341C19.7483 19.5449 19.2459 19.9973 18.972 20.5867C18.9153 20.7085 18.7998 20.7924 18.6665 20.8086C18.0212 20.8871 17.4358 21.2251 17.0453 21.7446C16.9646 21.852 16.8341 21.9101 16.7003 21.8982C16.0529 21.8408 15.41 22.0497 14.9199 22.4767C14.8186 22.565 14.679 22.5947 14.5506 22.5552C13.9292 22.3644 13.2569 22.4351 12.6888 22.7509C12.5714 22.8162 12.4286 22.8162 12.3112 22.7509C11.7431 22.4351 11.0708 22.3644 10.4494 22.5552C10.321 22.5947 10.1814 22.565 10.0801 22.4767C9.59005 22.0497 8.94715 21.8408 8.2997 21.8982C8.16589 21.9101 8.03544 21.852 7.95473 21.7446C7.5642 21.2251 6.97877 20.8871 6.33352 20.8086C6.20017 20.7924 6.08465 20.7085 6.02803 20.5867C5.75406 19.9973 5.2517 19.5449 4.63686 19.3341C4.50979 19.2905 4.41424 19.1844 4.38419 19.0534C4.23875 18.4199 3.84142 17.873 3.28385 17.539C3.16862 17.4699 3.09722 17.3463 3.09504 17.2119C3.0845 16.562 2.80955 15.9445 2.33363 15.5018C2.23527 15.4103 2.19115 15.2745 2.21694 15.1426C2.34175 14.5047 2.20121 13.8435 1.82773 13.3115C1.75054 13.2016 1.73562 13.0596 1.78826 12.936C2.04297 12.338 2.04297 11.662 1.78826 11.064C1.73562 10.9404 1.75054 10.7984 1.82773 10.6885C2.20121 10.1565 2.34175 9.49525 2.21694 8.85735C2.19115 8.72552 2.23527 8.58972 2.33363 8.49822C2.80955 8.05551 3.0845 7.43797 3.09504 6.78806C3.09722 6.65375 3.16862 6.53008 3.28385 6.46104C3.84142 6.12695 4.23875 5.58007 4.38419 4.94655C4.41424 4.81563 4.50979 4.70951 4.63686 4.66593C5.2517 4.45507 5.75406 4.00275 6.02803 3.41332C6.08465 3.2915 6.20017 3.20757 6.33353 3.19136C6.97877 3.11294 7.5642 2.77495 7.95473 2.25536C8.03544 2.14798 8.16589 2.0899 8.2997 2.10177C8.94715 2.15922 9.59005 1.95033 10.0801 1.52329C10.1814 1.43503 10.321 1.40534 10.4494 1.44478Z" stroke="white" stroke-width="2"/>
<path d="M9.18359 15.8739C8.46582 15.8739 7.81396 15.7406 7.22803 15.474C6.63623 15.2103 6.16309 14.8002 5.80859 14.2435C5.4541 13.6869 5.27686 12.9852 5.27686 12.1385C5.27686 11.4647 5.41602 10.8612 5.69434 10.328C5.97266 9.7948 6.37695 9.37732 6.90723 9.07556C7.44043 8.77087 8.06738 8.61853 8.78809 8.61853C9.09277 8.61853 9.38867 8.6698 9.67578 8.77234C9.96582 8.87488 10.1943 9.02429 10.3613 9.22058L10.5063 8.75476H12.0269V11.3344H10.6689C10.5781 10.9652 10.4038 10.6854 10.146 10.495C9.88818 10.3046 9.61865 10.2094 9.3374 10.2094C8.86865 10.2094 8.49805 10.3807 8.22559 10.7235C7.95312 11.0663 7.81689 11.538 7.81689 12.1385C7.81689 12.745 7.95166 13.2211 8.22119 13.5668C8.49072 13.9095 8.87158 14.0809 9.36377 14.0809C9.48096 14.0809 9.60693 14.0692 9.7417 14.0458C9.84131 14.0282 9.93506 14.0048 10.0229 13.9755C10.1108 13.9432 10.1694 13.9242 10.1987 13.9183V13.2987H9.35498V11.9935H12.1719V15.1356C11.7207 15.3759 11.2373 15.559 10.7217 15.6849C10.2061 15.8109 9.69336 15.8739 9.18359 15.8739ZM16.511 15.8739C15.7932 15.8739 15.1413 15.7406 14.5554 15.474C13.9636 15.2103 13.4905 14.8002 13.136 14.2435C12.7815 13.6869 12.6042 12.9852 12.6042 12.1385C12.6042 11.4647 12.7434 10.8612 13.0217 10.328C13.3 9.7948 13.7043 9.37732 14.2346 9.07556C14.7678 8.77087 15.3948 8.61853 16.1155 8.61853C16.4202 8.61853 16.7161 8.6698 17.0032 8.77234C17.2932 8.87488 17.5217 9.02429 17.6887 9.22058L17.8337 8.75476H19.3542V11.3344H17.9963C17.9055 10.9652 17.7312 10.6854 17.4734 10.495C17.2156 10.3046 16.946 10.2094 16.6648 10.2094C16.196 10.2094 15.8254 10.3807 15.553 10.7235C15.2805 11.0663 15.1443 11.538 15.1443 12.1385C15.1443 12.745 15.279 13.2211 15.5486 13.5668C15.8181 13.9095 16.199 14.0809 16.6912 14.0809C16.8083 14.0809 16.9343 14.0692 17.0691 14.0458C17.1687 14.0282 17.2624 14.0048 17.3503 13.9755C17.4382 13.9432 17.4968 13.9242 17.5261 13.9183V13.2987H16.6824V11.9935H19.4993V15.1356C19.0481 15.3759 18.5647 15.559 18.0491 15.6849C17.5334 15.8109 17.0207 15.8739 16.511 15.8739Z" fill="white"/>
</g>
<defs>
<clipPath id="clip0_151_5560">
<rect width="24" height="24" fill="white" transform="translate(0.5)"/>
</clipPath>
</defs>
</svg>
