<svg width="33" height="32" viewBox="0 0 33 32" fill="none" xmlns="http://www.w3.org/2000/svg">
<path d="M5.8416 10.9707C4.91626 12.6453 4.38977 14.563 4.38977 16.6022C4.38977 18.6415 4.91626 20.5609 5.8416 22.2355V10.9707Z" fill="#C28F2B"/>
<path d="M16.444 4.76929C15.4661 4.76929 14.5171 4.8873 13.6066 5.10149V6.96372C14.5083 6.70999 15.459 6.57074 16.444 6.57074C22.0871 6.57074 26.6624 11.0481 26.6624 16.5722C26.6624 19.0599 25.7317 21.3352 24.196 23.0853L23.9047 24.1061L23.26 26.3654C26.4236 24.233 28.5 20.6566 28.5 16.6053C28.4983 10.0668 23.1016 4.76929 16.444 4.76929Z" fill="#C28F2B"/>
<path d="M13.6066 22.7436H22.8523H23.0544C24.6191 21.1386 25.5828 18.9655 25.5828 16.5722C25.5828 11.6322 21.492 7.62866 16.4446 7.62866C15.4537 7.62866 14.5012 7.78621 13.6072 8.07003V22.7436H13.6066Z" fill="#C28F2B"/>
<path d="M12.5134 3.14661H5.63538L6.93416 5.79361V26.1807L5.63538 28.826H21.4199L22.8517 23.8164H12.5134V3.14661Z" fill="#C28F2B"/>
</svg>
