<svg width="56" height="56" viewBox="0 0 56 56" fill="none" xmlns="http://www.w3.org/2000/svg">
<g clip-path="url(#clip0_1_2100)">
<path d="M54.2381 45.7306L46.5641 38.0566L38.0566 46.564L45.7308 54.2381C48.08 56.5874 51.8889 56.5874 54.2382 54.2381C56.5874 51.8888 56.5874 48.0799 54.2381 45.7306Z" fill="#959595"/>
<path d="M24.1302 47.4312C24.55 47.4312 24.97 47.271 25.2902 46.9506C25.931 46.3099 25.931 45.2712 25.2902 44.6305L23.3626 42.7028L55.3976 16.5115C55.7787 16.1999 55.9997 15.7336 55.9997 15.2413V1.64062C55.9997 0.734562 55.2652 0 54.3591 0H40.7582C40.2659 0 39.7996 0.221047 39.488 0.602109L13.2967 32.637L11.3691 30.7093C10.7285 30.0687 9.68962 30.0686 9.0489 30.7093C8.40818 31.35 8.40818 32.3888 9.0489 33.0295L22.9701 46.9506C23.2904 47.2711 23.7102 47.4312 24.1302 47.4312ZM45.7854 7.89414C46.426 7.25342 47.4648 7.25342 48.1056 7.89414C48.7463 8.53486 48.7463 9.57359 48.1056 10.2143L19.4897 38.8301L17.1696 36.5099L45.7854 7.89414Z" fill="#959595"/>
<path d="M10.2694 54.2381L17.9433 46.5641L9.43603 38.0566L1.76195 45.7307C-0.587317 48.08 -0.587317 51.8889 1.76195 54.2382C4.11122 56.5873 7.92009 56.5873 10.2694 54.2381Z" fill="#959595"/>
<path d="M0.602109 16.5116L13.5726 27.116L18.621 20.9412L7.89414 10.2143C7.25342 9.5737 7.25342 8.53486 7.89414 7.89414C8.53486 7.25342 9.57359 7.25342 10.2143 7.89414L20.7084 18.3882L25.8809 12.0618L16.5116 0.602109C16.2 0.221047 15.7337 0 15.2414 0H1.64062C0.734562 0 0 0.734563 0 1.64063V15.2415C0 15.7338 0.221047 16.2 0.602109 16.5116Z" fill="#959595"/>
<path d="M44.6302 30.7091L42.7025 32.6367L41.9636 31.7329L37.6113 35.2912L38.8297 36.5095L36.5095 38.8297L35.0583 37.3785L30.5915 41.0304L32.6366 42.7024L30.709 44.6301C30.0684 45.2707 30.0683 46.3095 30.709 46.9502C31.3497 47.5909 32.3885 47.5909 33.0292 46.9502L46.9503 33.0291C47.2707 32.7088 47.4309 32.289 47.4309 31.8691C47.4309 31.4493 47.2707 31.0293 46.9503 30.7091C46.3096 30.0683 45.2709 30.0683 44.6302 30.7091Z" fill="#959595"/>
</g>
<defs>
<clipPath id="clip0_1_2100">
<rect width="56" height="56" fill="white"/>
</clipPath>
</defs>
</svg>
