<svg width="24" height="24" viewBox="0 0 24 24" fill="none" xmlns="http://www.w3.org/2000/svg">
<g clip-path="url(#clip0_39_5654)">
<path d="M23.2449 19.5988L19.956 16.3099L16.31 19.9559L19.5989 23.2448C20.6057 24.2517 22.2381 24.2517 23.2449 23.2448C24.2517 22.238 24.2517 20.6056 23.2449 19.5988V19.5988Z" fill="#666C7C"/>
<path d="M10.3416 20.3277C10.5215 20.3277 10.7015 20.259 10.8388 20.1217C11.1134 19.8471 11.1134 19.4019 10.8388 19.1273L10.0127 18.3012L23.7419 7.07634C23.9053 6.9428 24 6.74297 24 6.53198V0.703125C24 0.314812 23.6852 0 23.2969 0H17.4679C17.2569 0 17.0571 0.0947344 16.9235 0.258047L5.6987 13.9873L4.87258 13.1611C4.59803 12.8866 4.15281 12.8865 3.87822 13.1611C3.60362 13.4357 3.60362 13.8809 3.87822 14.1555L9.84443 20.1217C9.98173 20.259 10.1616 20.3277 10.3416 20.3277ZM19.6224 3.3832C19.897 3.10861 20.3422 3.10861 20.6168 3.3832C20.8914 3.6578 20.8914 4.10297 20.6168 4.37756L8.35286 16.6415L7.3585 15.6471L19.6224 3.3832Z" fill="#666C7C"/>
<path d="M4.40114 23.2448L7.68998 19.956L4.044 16.3099L0.755106 19.5988C-0.251722 20.6057 -0.251722 22.2381 0.755106 23.2449C1.76193 24.2517 3.39431 24.2517 4.40114 23.2448V23.2448Z" fill="#666C7C"/>
<path d="M0.258047 7.07639L5.81681 11.6212L7.98042 8.97478L3.3832 4.37756C3.10861 4.10302 3.10861 3.6578 3.3832 3.3832C3.6578 3.10861 4.10297 3.10861 4.37756 3.3832L8.87503 7.88067L11.0918 5.16933L7.07639 0.258047C6.94284 0.0947344 6.74302 0 6.53203 0H0.703125C0.314812 0 0 0.314813 0 0.703125V6.53208C0 6.74306 0.0947344 6.94284 0.258047 7.07639V7.07639Z" fill="#666C7C"/>
<path d="M19.1274 13.1611L18.3012 13.9873L17.9845 13.5999L16.1193 15.1249L16.6414 15.6471L15.6471 16.6414L15.0251 16.0195L13.1108 17.5846L13.9873 18.3012L13.1612 19.1273C12.8866 19.4018 12.8866 19.8471 13.1612 20.1216C13.4358 20.3962 13.8809 20.3962 14.1555 20.1216L20.1217 14.1555C20.259 14.0182 20.3277 13.8383 20.3277 13.6583C20.3277 13.4784 20.259 13.2984 20.1217 13.1611C19.8471 12.8866 19.402 12.8866 19.1274 13.1611V13.1611Z" fill="#666C7C"/>
</g>
<defs>
<clipPath id="clip0_39_5654">
<rect width="24" height="24" fill="white"/>
</clipPath>
</defs>
</svg>
