<svg width="32" height="32" viewBox="0 0 32 32" fill="none" xmlns="http://www.w3.org/2000/svg">
<path d="M29 3H3V29H29V3Z" fill="#FF4655"/>
<path d="M23.8591 15.755V9.64369C23.8591 9.54943 23.7412 9.51016 23.6784 9.58085L17.0015 17.923C16.9465 17.9858 16.9937 18.0879 17.0801 18.0879H21.9031C22.0367 18.0879 22.1545 18.0251 22.233 17.923L23.7569 16.022C23.8198 15.9513 23.8591 15.8571 23.8591 15.755ZM8.24306 16.0299L13.2546 22.2983C13.3332 22.4004 13.4589 22.4554 13.5924 22.4554H18.4155C18.5019 22.4554 18.549 22.3611 18.494 22.2983L8.32161 9.58871C8.25877 9.51801 8.14095 9.55729 8.14095 9.65155V15.7628C8.1488 15.8571 8.18022 15.9513 8.24306 16.0299Z" fill="#111111"/>
</svg>
