<svg width="33" height="32" viewBox="0 0 33 32" fill="none" xmlns="http://www.w3.org/2000/svg">
<path d="M29.5 3H3.5V29H29.5V3Z" fill="#FF4655"/>
<path d="M21.5822 13.1417V9.03504C21.5822 8.9717 21.503 8.94531 21.4608 8.99282L16.974 14.5986C16.9371 14.6408 16.9687 14.7094 17.0268 14.7094H20.2678C20.3575 14.7094 20.4367 14.6672 20.4895 14.5986L21.5135 13.3212C21.5558 13.2737 21.5822 13.2103 21.5822 13.1417ZM11.0885 13.3265L14.4562 17.5387C14.5089 17.6073 14.5934 17.6443 14.6831 17.6443H17.9241C17.9822 17.6443 18.0139 17.581 17.9769 17.5387L11.1412 8.99809C11.099 8.95059 11.0198 8.97698 11.0198 9.04032V13.147C11.0251 13.2103 11.0462 13.2737 11.0885 13.3265Z" fill="#111111"/>
<path d="M24.5593 20.1094H25.3141V22.4213C25.3141 22.453 25.3405 22.4741 25.3669 22.4741H25.7997C25.8314 22.4741 25.8525 22.4477 25.8525 22.4213V20.1094H26.8026C26.829 20.1094 26.8449 20.0777 26.829 20.0566L26.5018 19.6501C26.4754 19.6185 26.4331 19.5973 26.3909 19.5973H24.554C24.5223 19.5973 24.5012 19.6237 24.5012 19.6501V20.0566C24.5065 20.083 24.5276 20.1094 24.5593 20.1094ZM6.31141 22.4266L8.52839 19.6501C8.54423 19.629 8.52839 19.5973 8.502 19.5973H7.95303C7.9108 19.5973 7.86858 19.6185 7.84218 19.6501L6.26918 21.619V19.6501C6.26918 19.6185 6.24279 19.5973 6.2164 19.5973H5.78356C5.75189 19.5973 5.73077 19.6237 5.73077 19.6501V22.4266C5.73077 22.4583 5.75717 22.4794 5.78356 22.4794H6.20584C6.24279 22.4794 6.28502 22.4583 6.31141 22.4266ZM7.87913 22.4266L8.63924 21.4712L9.40463 22.4266C9.43102 22.4583 9.47325 22.4794 9.51548 22.4794H9.93776C9.96943 22.4794 9.99054 22.453 9.99054 22.4266V19.6501C9.99054 19.6185 9.96415 19.5973 9.93776 19.5973H9.5841C9.49964 19.5973 9.41518 19.6343 9.3624 19.7029L7.18765 22.4266C7.17181 22.4477 7.18765 22.4794 7.21404 22.4794H7.76301C7.81051 22.4794 7.84746 22.4583 7.87913 22.4266ZM9.45213 20.3997V21.6771L8.94012 21.0384L9.45213 20.3997ZM21.8303 22.4266L19.6133 19.6501C19.5869 19.6185 19.5447 19.5973 19.5024 19.5973H19.0802C19.0485 19.5973 19.0274 19.6237 19.0274 19.6501V22.4266C19.0274 22.4583 19.0538 22.4794 19.0802 22.4794H19.5024C19.5447 22.4794 19.5869 22.4583 19.6133 22.4266L20.3787 21.4712L21.1388 22.4266C21.1652 22.4583 21.2074 22.4794 21.2496 22.4794H21.8039C21.8356 22.4794 21.8514 22.4477 21.8303 22.4266ZM20.0778 21.0384L19.5658 21.6771V20.3997L20.0778 21.0384ZM13.9758 19.5234C13.1418 19.5234 12.4609 20.1991 12.4609 21.0384C12.4609 21.8724 13.1365 22.5533 13.9758 22.5533C14.8098 22.5533 15.4908 21.8777 15.4908 21.0384C15.4908 20.1991 14.8098 19.5234 13.9758 19.5234ZM13.9758 22.036C13.4374 22.036 13.0046 21.5873 13.0046 21.0384C13.0046 20.4841 13.4374 20.0407 13.9758 20.0407C14.5142 20.0407 14.9471 20.4894 14.9471 21.0384C14.9471 21.5873 14.5142 22.036 13.9758 22.036ZM23.588 19.6501V21.619L22.015 19.6501C21.9886 19.6185 21.9464 19.5973 21.9042 19.5973H21.4819C21.4502 19.5973 21.4291 19.6237 21.4291 19.6501V20.9856C21.4291 21.0173 21.4397 21.0489 21.4608 21.0753L21.9094 21.6401C21.9306 21.6665 21.9675 21.6507 21.9675 21.619V20.4577L23.5405 22.4266C23.5669 22.4583 23.6091 22.4794 23.6514 22.4794H24.0736C24.1053 22.4794 24.1264 22.453 24.1264 22.4266V19.6501C24.1264 19.6185 24.1 19.5973 24.0736 19.5973H23.6408C23.6144 19.5973 23.588 19.6185 23.588 19.6501ZM18.2989 20.2519V19.6501C18.2989 19.6185 18.2725 19.5973 18.2462 19.5973H16.0292C15.9975 19.5973 15.9764 19.6237 15.9764 19.6501V22.4266C15.9764 22.4583 16.0028 22.4794 16.0292 22.4794H16.462C16.4937 22.4794 16.5148 22.453 16.5148 22.4266V20.1146H17.7553L16.916 21.1651C16.9001 21.1862 16.9001 21.2126 16.916 21.2337L17.8714 22.4319C17.8978 22.4636 17.94 22.4847 17.9822 22.4847H18.5365C18.5629 22.4847 18.5787 22.453 18.5629 22.4319L17.5863 21.1915L18.2673 20.3363C18.2884 20.3152 18.2989 20.2835 18.2989 20.2519ZM10.6979 22.4794H11.9805C12.0228 22.4794 12.065 22.4583 12.0914 22.4266L12.4134 22.0202C12.4292 21.9991 12.4134 21.9674 12.387 21.9674H11.1835V19.6554C11.1835 19.6237 11.1571 19.6026 11.1307 19.6026H10.6979C10.6662 19.6026 10.6451 19.629 10.6451 19.6554V22.4319C10.6451 22.453 10.6662 22.4794 10.6979 22.4794Z" fill="#111111"/>
</svg>
